G04 MADE WITH FRITZING*
G04 WWW.FRITZING.ORG*
G04 DOUBLE SIDED*
G04 HOLES PLATED*
G04 CONTOUR ON CENTER OF CONTOUR VECTOR*
%ASAXBY*%
%FSLAX23Y23*%
%MOIN*%
%OFA0B0*%
%SFA1.0B1.0*%
%ADD10C,0.010000*%
%ADD11C,0.007874*%
%ADD12R,0.001000X0.001000*%
%LNSILK1*%
G90*
G70*
G54D10*
X310Y512D02*
X310Y112D01*
D02*
X310Y112D02*
X710Y112D01*
D02*
X710Y112D02*
X710Y512D01*
D02*
X310Y512D02*
X460Y512D01*
D02*
X560Y512D02*
X710Y512D01*
D02*
X670Y95D02*
X870Y95D01*
D02*
X870Y95D02*
X870Y29D01*
D02*
X870Y29D02*
X670Y29D01*
D02*
X670Y29D02*
X670Y95D01*
D02*
X470Y595D02*
X670Y595D01*
D02*
X670Y595D02*
X670Y529D01*
D02*
X670Y529D02*
X470Y529D01*
D02*
X470Y529D02*
X470Y595D01*
D02*
X224Y532D02*
X224Y392D01*
D02*
X170Y95D02*
X370Y95D01*
D02*
X370Y95D02*
X370Y29D01*
D02*
X370Y29D02*
X170Y29D01*
D02*
X170Y29D02*
X170Y95D01*
G54D11*
X931Y308D02*
X789Y308D01*
D02*
G54D12*
X0Y624D02*
X1015Y624D01*
X0Y623D02*
X1015Y623D01*
X0Y622D02*
X1015Y622D01*
X0Y621D02*
X1015Y621D01*
X0Y620D02*
X1015Y620D01*
X0Y619D02*
X1015Y619D01*
X0Y618D02*
X1015Y618D01*
X0Y617D02*
X1015Y617D01*
X0Y616D02*
X7Y616D01*
X1008Y616D02*
X1015Y616D01*
X0Y615D02*
X7Y615D01*
X1008Y615D02*
X1015Y615D01*
X0Y614D02*
X7Y614D01*
X1008Y614D02*
X1015Y614D01*
X0Y613D02*
X7Y613D01*
X1008Y613D02*
X1015Y613D01*
X0Y612D02*
X7Y612D01*
X1008Y612D02*
X1015Y612D01*
X0Y611D02*
X7Y611D01*
X1008Y611D02*
X1015Y611D01*
X0Y610D02*
X7Y610D01*
X1008Y610D02*
X1015Y610D01*
X0Y609D02*
X7Y609D01*
X1008Y609D02*
X1015Y609D01*
X0Y608D02*
X7Y608D01*
X1008Y608D02*
X1015Y608D01*
X0Y607D02*
X7Y607D01*
X1008Y607D02*
X1015Y607D01*
X0Y606D02*
X7Y606D01*
X1008Y606D02*
X1015Y606D01*
X0Y605D02*
X7Y605D01*
X1008Y605D02*
X1015Y605D01*
X0Y604D02*
X7Y604D01*
X1008Y604D02*
X1015Y604D01*
X0Y603D02*
X7Y603D01*
X1008Y603D02*
X1015Y603D01*
X0Y602D02*
X7Y602D01*
X1008Y602D02*
X1015Y602D01*
X0Y601D02*
X7Y601D01*
X1008Y601D02*
X1015Y601D01*
X0Y600D02*
X7Y600D01*
X1008Y600D02*
X1015Y600D01*
X0Y599D02*
X7Y599D01*
X1008Y599D02*
X1015Y599D01*
X0Y598D02*
X7Y598D01*
X1008Y598D02*
X1015Y598D01*
X0Y597D02*
X7Y597D01*
X1008Y597D02*
X1015Y597D01*
X0Y596D02*
X7Y596D01*
X1008Y596D02*
X1015Y596D01*
X0Y595D02*
X7Y595D01*
X1008Y595D02*
X1015Y595D01*
X0Y594D02*
X7Y594D01*
X1008Y594D02*
X1015Y594D01*
X0Y593D02*
X7Y593D01*
X1008Y593D02*
X1015Y593D01*
X0Y592D02*
X7Y592D01*
X1008Y592D02*
X1015Y592D01*
X0Y591D02*
X7Y591D01*
X1008Y591D02*
X1015Y591D01*
X0Y590D02*
X7Y590D01*
X1008Y590D02*
X1015Y590D01*
X0Y589D02*
X7Y589D01*
X1008Y589D02*
X1015Y589D01*
X0Y588D02*
X7Y588D01*
X1008Y588D02*
X1015Y588D01*
X0Y587D02*
X7Y587D01*
X1008Y587D02*
X1015Y587D01*
X0Y586D02*
X7Y586D01*
X1008Y586D02*
X1015Y586D01*
X0Y585D02*
X7Y585D01*
X1008Y585D02*
X1015Y585D01*
X0Y584D02*
X7Y584D01*
X1008Y584D02*
X1015Y584D01*
X0Y583D02*
X7Y583D01*
X1008Y583D02*
X1015Y583D01*
X0Y582D02*
X7Y582D01*
X1008Y582D02*
X1015Y582D01*
X0Y581D02*
X7Y581D01*
X1008Y581D02*
X1015Y581D01*
X0Y580D02*
X7Y580D01*
X1008Y580D02*
X1015Y580D01*
X0Y579D02*
X7Y579D01*
X510Y579D02*
X526Y579D01*
X540Y579D02*
X556Y579D01*
X572Y579D02*
X586Y579D01*
X1008Y579D02*
X1015Y579D01*
X0Y578D02*
X7Y578D01*
X509Y578D02*
X527Y578D01*
X539Y578D02*
X557Y578D01*
X570Y578D02*
X587Y578D01*
X1008Y578D02*
X1015Y578D01*
X0Y577D02*
X7Y577D01*
X509Y577D02*
X528Y577D01*
X539Y577D02*
X558Y577D01*
X570Y577D02*
X588Y577D01*
X606Y577D02*
X614Y577D01*
X1008Y577D02*
X1015Y577D01*
X0Y576D02*
X7Y576D01*
X509Y576D02*
X528Y576D01*
X539Y576D02*
X558Y576D01*
X569Y576D02*
X589Y576D01*
X604Y576D02*
X617Y576D01*
X1008Y576D02*
X1015Y576D01*
X0Y575D02*
X7Y575D01*
X525Y575D02*
X528Y575D01*
X555Y575D02*
X559Y575D01*
X569Y575D02*
X573Y575D01*
X585Y575D02*
X589Y575D01*
X602Y575D02*
X618Y575D01*
X1008Y575D02*
X1015Y575D01*
X0Y574D02*
X7Y574D01*
X525Y574D02*
X529Y574D01*
X555Y574D02*
X559Y574D01*
X569Y574D02*
X572Y574D01*
X585Y574D02*
X589Y574D01*
X601Y574D02*
X607Y574D01*
X614Y574D02*
X620Y574D01*
X1008Y574D02*
X1015Y574D01*
X0Y573D02*
X7Y573D01*
X525Y573D02*
X529Y573D01*
X555Y573D02*
X559Y573D01*
X569Y573D02*
X572Y573D01*
X585Y573D02*
X589Y573D01*
X600Y573D02*
X605Y573D01*
X616Y573D02*
X621Y573D01*
X1008Y573D02*
X1015Y573D01*
X0Y572D02*
X7Y572D01*
X525Y572D02*
X529Y572D01*
X555Y572D02*
X559Y572D01*
X569Y572D02*
X572Y572D01*
X585Y572D02*
X589Y572D01*
X599Y572D02*
X603Y572D01*
X617Y572D02*
X621Y572D01*
X1008Y572D02*
X1015Y572D01*
X0Y571D02*
X7Y571D01*
X525Y571D02*
X529Y571D01*
X555Y571D02*
X559Y571D01*
X569Y571D02*
X572Y571D01*
X585Y571D02*
X589Y571D01*
X599Y571D02*
X603Y571D01*
X618Y571D02*
X622Y571D01*
X1008Y571D02*
X1015Y571D01*
X0Y570D02*
X7Y570D01*
X525Y570D02*
X529Y570D01*
X555Y570D02*
X559Y570D01*
X569Y570D02*
X572Y570D01*
X585Y570D02*
X589Y570D01*
X598Y570D02*
X602Y570D01*
X619Y570D02*
X623Y570D01*
X1008Y570D02*
X1015Y570D01*
X0Y569D02*
X7Y569D01*
X525Y569D02*
X529Y569D01*
X555Y569D02*
X559Y569D01*
X569Y569D02*
X572Y569D01*
X585Y569D02*
X589Y569D01*
X598Y569D02*
X601Y569D01*
X619Y569D02*
X623Y569D01*
X1008Y569D02*
X1015Y569D01*
X0Y568D02*
X7Y568D01*
X525Y568D02*
X529Y568D01*
X555Y568D02*
X559Y568D01*
X569Y568D02*
X572Y568D01*
X585Y568D02*
X589Y568D01*
X597Y568D02*
X601Y568D01*
X620Y568D02*
X623Y568D01*
X1008Y568D02*
X1015Y568D01*
X0Y567D02*
X7Y567D01*
X402Y567D02*
X469Y567D01*
X525Y567D02*
X529Y567D01*
X555Y567D02*
X559Y567D01*
X569Y567D02*
X572Y567D01*
X585Y567D02*
X589Y567D01*
X597Y567D02*
X601Y567D01*
X620Y567D02*
X624Y567D01*
X669Y567D02*
X717Y567D01*
X1008Y567D02*
X1015Y567D01*
X0Y566D02*
X7Y566D01*
X402Y566D02*
X469Y566D01*
X525Y566D02*
X529Y566D01*
X555Y566D02*
X559Y566D01*
X569Y566D02*
X572Y566D01*
X585Y566D02*
X589Y566D01*
X597Y566D02*
X601Y566D01*
X620Y566D02*
X624Y566D01*
X669Y566D02*
X717Y566D01*
X1008Y566D02*
X1015Y566D01*
X0Y565D02*
X7Y565D01*
X402Y565D02*
X469Y565D01*
X512Y565D02*
X528Y565D01*
X542Y565D02*
X559Y565D01*
X569Y565D02*
X572Y565D01*
X585Y565D02*
X589Y565D01*
X597Y565D02*
X600Y565D01*
X620Y565D02*
X624Y565D01*
X669Y565D02*
X717Y565D01*
X1008Y565D02*
X1015Y565D01*
X0Y564D02*
X7Y564D01*
X403Y564D02*
X469Y564D01*
X510Y564D02*
X528Y564D01*
X540Y564D02*
X558Y564D01*
X569Y564D02*
X572Y564D01*
X585Y564D02*
X589Y564D01*
X597Y564D02*
X600Y564D01*
X620Y564D02*
X624Y564D01*
X669Y564D02*
X716Y564D01*
X1008Y564D02*
X1015Y564D01*
X0Y563D02*
X7Y563D01*
X403Y563D02*
X469Y563D01*
X509Y563D02*
X528Y563D01*
X539Y563D02*
X558Y563D01*
X569Y563D02*
X572Y563D01*
X585Y563D02*
X589Y563D01*
X597Y563D02*
X600Y563D01*
X620Y563D02*
X624Y563D01*
X669Y563D02*
X716Y563D01*
X1008Y563D02*
X1015Y563D01*
X0Y562D02*
X7Y562D01*
X403Y562D02*
X469Y562D01*
X509Y562D02*
X527Y562D01*
X539Y562D02*
X557Y562D01*
X569Y562D02*
X572Y562D01*
X585Y562D02*
X589Y562D01*
X597Y562D02*
X600Y562D01*
X620Y562D02*
X624Y562D01*
X669Y562D02*
X716Y562D01*
X1008Y562D02*
X1015Y562D01*
X0Y561D02*
X7Y561D01*
X402Y561D02*
X469Y561D01*
X509Y561D02*
X525Y561D01*
X539Y561D02*
X555Y561D01*
X569Y561D02*
X572Y561D01*
X585Y561D02*
X589Y561D01*
X597Y561D02*
X601Y561D01*
X620Y561D02*
X624Y561D01*
X669Y561D02*
X716Y561D01*
X1008Y561D02*
X1015Y561D01*
X0Y560D02*
X7Y560D01*
X402Y560D02*
X469Y560D01*
X509Y560D02*
X512Y560D01*
X539Y560D02*
X542Y560D01*
X569Y560D02*
X572Y560D01*
X585Y560D02*
X589Y560D01*
X597Y560D02*
X601Y560D01*
X620Y560D02*
X624Y560D01*
X669Y560D02*
X717Y560D01*
X1008Y560D02*
X1015Y560D01*
X0Y559D02*
X7Y559D01*
X402Y559D02*
X469Y559D01*
X509Y559D02*
X512Y559D01*
X539Y559D02*
X542Y559D01*
X569Y559D02*
X572Y559D01*
X585Y559D02*
X589Y559D01*
X598Y559D02*
X601Y559D01*
X620Y559D02*
X623Y559D01*
X669Y559D02*
X717Y559D01*
X1008Y559D02*
X1015Y559D01*
X0Y558D02*
X7Y558D01*
X402Y558D02*
X468Y558D01*
X509Y558D02*
X512Y558D01*
X539Y558D02*
X542Y558D01*
X569Y558D02*
X572Y558D01*
X585Y558D02*
X589Y558D01*
X598Y558D02*
X601Y558D01*
X620Y558D02*
X623Y558D01*
X670Y558D02*
X717Y558D01*
X1008Y558D02*
X1015Y558D01*
X0Y557D02*
X7Y557D01*
X509Y557D02*
X512Y557D01*
X539Y557D02*
X542Y557D01*
X569Y557D02*
X572Y557D01*
X585Y557D02*
X589Y557D01*
X598Y557D02*
X602Y557D01*
X619Y557D02*
X623Y557D01*
X1008Y557D02*
X1015Y557D01*
X0Y556D02*
X7Y556D01*
X509Y556D02*
X512Y556D01*
X539Y556D02*
X542Y556D01*
X569Y556D02*
X572Y556D01*
X585Y556D02*
X589Y556D01*
X599Y556D02*
X602Y556D01*
X619Y556D02*
X622Y556D01*
X1008Y556D02*
X1015Y556D01*
X0Y555D02*
X7Y555D01*
X509Y555D02*
X512Y555D01*
X539Y555D02*
X542Y555D01*
X569Y555D02*
X572Y555D01*
X585Y555D02*
X589Y555D01*
X599Y555D02*
X603Y555D01*
X618Y555D02*
X621Y555D01*
X1008Y555D02*
X1015Y555D01*
X0Y554D02*
X7Y554D01*
X110Y554D02*
X118Y554D01*
X509Y554D02*
X512Y554D01*
X539Y554D02*
X542Y554D01*
X569Y554D02*
X572Y554D01*
X585Y554D02*
X589Y554D01*
X600Y554D02*
X603Y554D01*
X618Y554D02*
X621Y554D01*
X1008Y554D02*
X1015Y554D01*
X0Y553D02*
X7Y553D01*
X108Y553D02*
X118Y553D01*
X509Y553D02*
X512Y553D01*
X539Y553D02*
X542Y553D01*
X569Y553D02*
X572Y553D01*
X585Y553D02*
X589Y553D01*
X601Y553D02*
X604Y553D01*
X617Y553D02*
X620Y553D01*
X1008Y553D02*
X1015Y553D01*
X0Y552D02*
X7Y552D01*
X107Y552D02*
X118Y552D01*
X509Y552D02*
X512Y552D01*
X539Y552D02*
X542Y552D01*
X569Y552D02*
X572Y552D01*
X585Y552D02*
X589Y552D01*
X602Y552D02*
X605Y552D01*
X616Y552D02*
X619Y552D01*
X1008Y552D02*
X1015Y552D01*
X0Y551D02*
X7Y551D01*
X107Y551D02*
X119Y551D01*
X509Y551D02*
X526Y551D01*
X539Y551D02*
X556Y551D01*
X569Y551D02*
X589Y551D01*
X603Y551D02*
X606Y551D01*
X615Y551D02*
X618Y551D01*
X1008Y551D02*
X1015Y551D01*
X0Y550D02*
X7Y550D01*
X107Y550D02*
X119Y550D01*
X509Y550D02*
X528Y550D01*
X539Y550D02*
X558Y550D01*
X569Y550D02*
X589Y550D01*
X603Y550D02*
X607Y550D01*
X614Y550D02*
X617Y550D01*
X1008Y550D02*
X1015Y550D01*
X0Y549D02*
X7Y549D01*
X106Y549D02*
X119Y549D01*
X509Y549D02*
X528Y549D01*
X539Y549D02*
X559Y549D01*
X570Y549D02*
X588Y549D01*
X596Y549D02*
X607Y549D01*
X614Y549D02*
X625Y549D01*
X1008Y549D02*
X1015Y549D01*
X0Y548D02*
X7Y548D01*
X106Y548D02*
X119Y548D01*
X509Y548D02*
X528Y548D01*
X539Y548D02*
X558Y548D01*
X570Y548D02*
X587Y548D01*
X596Y548D02*
X607Y548D01*
X614Y548D02*
X625Y548D01*
X1008Y548D02*
X1015Y548D01*
X0Y547D02*
X7Y547D01*
X106Y547D02*
X120Y547D01*
X509Y547D02*
X527Y547D01*
X539Y547D02*
X557Y547D01*
X572Y547D02*
X586Y547D01*
X596Y547D02*
X607Y547D01*
X614Y547D02*
X625Y547D01*
X1008Y547D02*
X1015Y547D01*
X0Y546D02*
X7Y546D01*
X105Y546D02*
X120Y546D01*
X1008Y546D02*
X1015Y546D01*
X0Y545D02*
X7Y545D01*
X105Y545D02*
X117Y545D01*
X1008Y545D02*
X1015Y545D01*
X0Y544D02*
X7Y544D01*
X105Y544D02*
X110Y544D01*
X1008Y544D02*
X1015Y544D01*
X0Y543D02*
X7Y543D01*
X104Y543D02*
X107Y543D01*
X1008Y543D02*
X1015Y543D01*
X0Y542D02*
X7Y542D01*
X104Y542D02*
X104Y542D01*
X1008Y542D02*
X1015Y542D01*
X0Y541D02*
X7Y541D01*
X1008Y541D02*
X1015Y541D01*
X0Y540D02*
X7Y540D01*
X1008Y540D02*
X1015Y540D01*
X0Y539D02*
X7Y539D01*
X1008Y539D02*
X1015Y539D01*
X0Y538D02*
X7Y538D01*
X1008Y538D02*
X1015Y538D01*
X0Y537D02*
X7Y537D01*
X1008Y537D02*
X1015Y537D01*
X0Y536D02*
X7Y536D01*
X1008Y536D02*
X1015Y536D01*
X0Y535D02*
X7Y535D01*
X1008Y535D02*
X1015Y535D01*
X0Y534D02*
X7Y534D01*
X1008Y534D02*
X1015Y534D01*
X0Y533D02*
X7Y533D01*
X1008Y533D02*
X1015Y533D01*
X0Y532D02*
X7Y532D01*
X1008Y532D02*
X1015Y532D01*
X0Y531D02*
X7Y531D01*
X1008Y531D02*
X1015Y531D01*
X0Y530D02*
X7Y530D01*
X1008Y530D02*
X1015Y530D01*
X0Y529D02*
X7Y529D01*
X1008Y529D02*
X1015Y529D01*
X0Y528D02*
X7Y528D01*
X1008Y528D02*
X1015Y528D01*
X0Y527D02*
X7Y527D01*
X1008Y527D02*
X1015Y527D01*
X0Y526D02*
X7Y526D01*
X1008Y526D02*
X1015Y526D01*
X0Y525D02*
X7Y525D01*
X1008Y525D02*
X1015Y525D01*
X0Y524D02*
X7Y524D01*
X89Y524D02*
X104Y524D01*
X119Y524D02*
X124Y524D01*
X137Y524D02*
X138Y524D01*
X1008Y524D02*
X1015Y524D01*
X0Y523D02*
X7Y523D01*
X89Y523D02*
X106Y523D01*
X119Y523D02*
X124Y523D01*
X136Y523D02*
X139Y523D01*
X1008Y523D02*
X1015Y523D01*
X0Y522D02*
X7Y522D01*
X89Y522D02*
X107Y522D01*
X119Y522D02*
X125Y522D01*
X136Y522D02*
X139Y522D01*
X1008Y522D02*
X1015Y522D01*
X0Y521D02*
X7Y521D01*
X89Y521D02*
X108Y521D01*
X119Y521D02*
X125Y521D01*
X136Y521D02*
X139Y521D01*
X149Y521D02*
X152Y521D01*
X168Y521D02*
X168Y521D01*
X1008Y521D02*
X1015Y521D01*
X0Y520D02*
X7Y520D01*
X83Y520D02*
X83Y520D01*
X89Y520D02*
X109Y520D01*
X119Y520D02*
X126Y520D01*
X136Y520D02*
X139Y520D01*
X149Y520D02*
X169Y520D01*
X1008Y520D02*
X1015Y520D01*
X0Y519D02*
X7Y519D01*
X80Y519D02*
X82Y519D01*
X89Y519D02*
X92Y519D01*
X105Y519D02*
X109Y519D01*
X119Y519D02*
X126Y519D01*
X136Y519D02*
X139Y519D01*
X149Y519D02*
X153Y519D01*
X166Y519D02*
X169Y519D01*
X1008Y519D02*
X1015Y519D01*
X0Y518D02*
X7Y518D01*
X78Y518D02*
X82Y518D01*
X89Y518D02*
X92Y518D01*
X106Y518D02*
X109Y518D01*
X119Y518D02*
X127Y518D01*
X136Y518D02*
X139Y518D01*
X149Y518D02*
X153Y518D01*
X166Y518D02*
X169Y518D01*
X1008Y518D02*
X1015Y518D01*
X0Y517D02*
X7Y517D01*
X75Y517D02*
X81Y517D01*
X89Y517D02*
X92Y517D01*
X106Y517D02*
X109Y517D01*
X119Y517D02*
X127Y517D01*
X136Y517D02*
X139Y517D01*
X149Y517D02*
X153Y517D01*
X166Y517D02*
X169Y517D01*
X1008Y517D02*
X1015Y517D01*
X0Y516D02*
X7Y516D01*
X72Y516D02*
X81Y516D01*
X89Y516D02*
X92Y516D01*
X106Y516D02*
X109Y516D01*
X119Y516D02*
X127Y516D01*
X136Y516D02*
X139Y516D01*
X149Y516D02*
X153Y516D01*
X166Y516D02*
X169Y516D01*
X1008Y516D02*
X1015Y516D01*
X0Y515D02*
X7Y515D01*
X70Y515D02*
X80Y515D01*
X89Y515D02*
X92Y515D01*
X106Y515D02*
X109Y515D01*
X119Y515D02*
X122Y515D01*
X124Y515D02*
X128Y515D01*
X136Y515D02*
X139Y515D01*
X149Y515D02*
X153Y515D01*
X166Y515D02*
X169Y515D01*
X1008Y515D02*
X1015Y515D01*
X0Y514D02*
X7Y514D01*
X70Y514D02*
X80Y514D01*
X89Y514D02*
X92Y514D01*
X106Y514D02*
X109Y514D01*
X119Y514D02*
X122Y514D01*
X125Y514D02*
X128Y514D01*
X136Y514D02*
X139Y514D01*
X149Y514D02*
X153Y514D01*
X166Y514D02*
X169Y514D01*
X1008Y514D02*
X1015Y514D01*
X0Y513D02*
X7Y513D01*
X69Y513D02*
X79Y513D01*
X89Y513D02*
X92Y513D01*
X106Y513D02*
X109Y513D01*
X119Y513D02*
X122Y513D01*
X125Y513D02*
X129Y513D01*
X136Y513D02*
X139Y513D01*
X149Y513D02*
X153Y513D01*
X166Y513D02*
X169Y513D01*
X1008Y513D02*
X1015Y513D01*
X0Y512D02*
X7Y512D01*
X69Y512D02*
X79Y512D01*
X89Y512D02*
X92Y512D01*
X106Y512D02*
X109Y512D01*
X119Y512D02*
X122Y512D01*
X126Y512D02*
X129Y512D01*
X136Y512D02*
X139Y512D01*
X149Y512D02*
X153Y512D01*
X166Y512D02*
X169Y512D01*
X1008Y512D02*
X1015Y512D01*
X0Y511D02*
X7Y511D01*
X69Y511D02*
X78Y511D01*
X89Y511D02*
X92Y511D01*
X106Y511D02*
X109Y511D01*
X119Y511D02*
X122Y511D01*
X126Y511D02*
X130Y511D01*
X136Y511D02*
X139Y511D01*
X149Y511D02*
X153Y511D01*
X166Y511D02*
X169Y511D01*
X1008Y511D02*
X1015Y511D01*
X0Y510D02*
X7Y510D01*
X68Y510D02*
X78Y510D01*
X89Y510D02*
X92Y510D01*
X106Y510D02*
X109Y510D01*
X119Y510D02*
X122Y510D01*
X126Y510D02*
X130Y510D01*
X136Y510D02*
X139Y510D01*
X149Y510D02*
X153Y510D01*
X166Y510D02*
X169Y510D01*
X1008Y510D02*
X1015Y510D01*
X0Y509D02*
X7Y509D01*
X68Y509D02*
X77Y509D01*
X89Y509D02*
X92Y509D01*
X105Y509D02*
X109Y509D01*
X119Y509D02*
X122Y509D01*
X127Y509D02*
X130Y509D01*
X136Y509D02*
X139Y509D01*
X149Y509D02*
X153Y509D01*
X165Y509D02*
X169Y509D01*
X1008Y509D02*
X1015Y509D01*
X0Y508D02*
X7Y508D01*
X68Y508D02*
X77Y508D01*
X89Y508D02*
X108Y508D01*
X119Y508D02*
X122Y508D01*
X127Y508D02*
X131Y508D01*
X136Y508D02*
X139Y508D01*
X149Y508D02*
X169Y508D01*
X1008Y508D02*
X1015Y508D01*
X0Y507D02*
X7Y507D01*
X67Y507D02*
X77Y507D01*
X89Y507D02*
X108Y507D01*
X119Y507D02*
X122Y507D01*
X128Y507D02*
X131Y507D01*
X136Y507D02*
X139Y507D01*
X149Y507D02*
X168Y507D01*
X1008Y507D02*
X1015Y507D01*
X0Y506D02*
X7Y506D01*
X67Y506D02*
X76Y506D01*
X89Y506D02*
X107Y506D01*
X119Y506D02*
X122Y506D01*
X128Y506D02*
X132Y506D01*
X136Y506D02*
X139Y506D01*
X149Y506D02*
X167Y506D01*
X1008Y506D02*
X1015Y506D01*
X0Y505D02*
X7Y505D01*
X67Y505D02*
X76Y505D01*
X89Y505D02*
X106Y505D01*
X119Y505D02*
X122Y505D01*
X129Y505D02*
X132Y505D01*
X136Y505D02*
X139Y505D01*
X149Y505D02*
X155Y505D01*
X165Y505D02*
X166Y505D01*
X1008Y505D02*
X1015Y505D01*
X0Y504D02*
X7Y504D01*
X66Y504D02*
X76Y504D01*
X89Y504D02*
X93Y504D01*
X119Y504D02*
X122Y504D01*
X129Y504D02*
X133Y504D01*
X136Y504D02*
X139Y504D01*
X149Y504D02*
X149Y504D01*
X1008Y504D02*
X1015Y504D01*
X0Y503D02*
X7Y503D01*
X66Y503D02*
X75Y503D01*
X89Y503D02*
X92Y503D01*
X119Y503D02*
X122Y503D01*
X129Y503D02*
X133Y503D01*
X136Y503D02*
X139Y503D01*
X1008Y503D02*
X1015Y503D01*
X0Y502D02*
X7Y502D01*
X66Y502D02*
X75Y502D01*
X89Y502D02*
X92Y502D01*
X119Y502D02*
X122Y502D01*
X130Y502D02*
X134Y502D01*
X136Y502D02*
X139Y502D01*
X1008Y502D02*
X1015Y502D01*
X0Y501D02*
X7Y501D01*
X65Y501D02*
X75Y501D01*
X89Y501D02*
X92Y501D01*
X119Y501D02*
X122Y501D01*
X130Y501D02*
X134Y501D01*
X136Y501D02*
X139Y501D01*
X1008Y501D02*
X1015Y501D01*
X0Y500D02*
X7Y500D01*
X65Y500D02*
X74Y500D01*
X89Y500D02*
X92Y500D01*
X119Y500D02*
X122Y500D01*
X131Y500D02*
X139Y500D01*
X1008Y500D02*
X1015Y500D01*
X0Y499D02*
X7Y499D01*
X65Y499D02*
X74Y499D01*
X89Y499D02*
X92Y499D01*
X119Y499D02*
X122Y499D01*
X131Y499D02*
X137Y499D01*
X1008Y499D02*
X1015Y499D01*
X0Y498D02*
X7Y498D01*
X65Y498D02*
X74Y498D01*
X89Y498D02*
X92Y498D01*
X119Y498D02*
X122Y498D01*
X132Y498D02*
X136Y498D01*
X1008Y498D02*
X1015Y498D01*
X0Y497D02*
X7Y497D01*
X64Y497D02*
X74Y497D01*
X89Y497D02*
X92Y497D01*
X119Y497D02*
X122Y497D01*
X132Y497D02*
X134Y497D01*
X1008Y497D02*
X1015Y497D01*
X0Y496D02*
X7Y496D01*
X64Y496D02*
X73Y496D01*
X89Y496D02*
X92Y496D01*
X119Y496D02*
X122Y496D01*
X133Y496D02*
X133Y496D01*
X1008Y496D02*
X1015Y496D01*
X0Y495D02*
X7Y495D01*
X64Y495D02*
X73Y495D01*
X89Y495D02*
X92Y495D01*
X119Y495D02*
X122Y495D01*
X1008Y495D02*
X1015Y495D01*
X0Y494D02*
X7Y494D01*
X64Y494D02*
X73Y494D01*
X89Y494D02*
X92Y494D01*
X119Y494D02*
X122Y494D01*
X1008Y494D02*
X1015Y494D01*
X0Y493D02*
X7Y493D01*
X63Y493D02*
X73Y493D01*
X89Y493D02*
X92Y493D01*
X119Y493D02*
X122Y493D01*
X1008Y493D02*
X1015Y493D01*
X0Y492D02*
X7Y492D01*
X63Y492D02*
X72Y492D01*
X90Y492D02*
X91Y492D01*
X120Y492D02*
X121Y492D01*
X1008Y492D02*
X1015Y492D01*
X0Y491D02*
X7Y491D01*
X63Y491D02*
X72Y491D01*
X1008Y491D02*
X1015Y491D01*
X0Y490D02*
X7Y490D01*
X63Y490D02*
X72Y490D01*
X1008Y490D02*
X1015Y490D01*
X0Y489D02*
X7Y489D01*
X63Y489D02*
X72Y489D01*
X1008Y489D02*
X1015Y489D01*
X0Y488D02*
X7Y488D01*
X62Y488D02*
X72Y488D01*
X1008Y488D02*
X1015Y488D01*
X0Y487D02*
X7Y487D01*
X62Y487D02*
X71Y487D01*
X1008Y487D02*
X1015Y487D01*
X0Y486D02*
X7Y486D01*
X62Y486D02*
X71Y486D01*
X1008Y486D02*
X1015Y486D01*
X0Y485D02*
X7Y485D01*
X62Y485D02*
X71Y485D01*
X1008Y485D02*
X1015Y485D01*
X0Y484D02*
X7Y484D01*
X62Y484D02*
X71Y484D01*
X1008Y484D02*
X1015Y484D01*
X0Y483D02*
X7Y483D01*
X62Y483D02*
X71Y483D01*
X1008Y483D02*
X1015Y483D01*
X0Y482D02*
X7Y482D01*
X62Y482D02*
X71Y482D01*
X1008Y482D02*
X1015Y482D01*
X0Y481D02*
X7Y481D01*
X61Y481D02*
X70Y481D01*
X1008Y481D02*
X1015Y481D01*
X0Y480D02*
X7Y480D01*
X61Y480D02*
X70Y480D01*
X1008Y480D02*
X1015Y480D01*
X0Y479D02*
X7Y479D01*
X61Y479D02*
X70Y479D01*
X1008Y479D02*
X1015Y479D01*
X0Y478D02*
X7Y478D01*
X61Y478D02*
X70Y478D01*
X1008Y478D02*
X1015Y478D01*
X0Y477D02*
X7Y477D01*
X61Y477D02*
X70Y477D01*
X897Y477D02*
X898Y477D01*
X1008Y477D02*
X1015Y477D01*
X0Y476D02*
X7Y476D01*
X61Y476D02*
X70Y476D01*
X819Y476D02*
X821Y476D01*
X896Y476D02*
X900Y476D01*
X1008Y476D02*
X1015Y476D01*
X0Y475D02*
X7Y475D01*
X61Y475D02*
X70Y475D01*
X817Y475D02*
X822Y475D01*
X896Y475D02*
X901Y475D01*
X1008Y475D02*
X1015Y475D01*
X0Y474D02*
X7Y474D01*
X61Y474D02*
X70Y474D01*
X816Y474D02*
X822Y474D01*
X896Y474D02*
X903Y474D01*
X1008Y474D02*
X1015Y474D01*
X0Y473D02*
X7Y473D01*
X61Y473D02*
X70Y473D01*
X814Y473D02*
X822Y473D01*
X896Y473D02*
X904Y473D01*
X1008Y473D02*
X1015Y473D01*
X0Y472D02*
X7Y472D01*
X61Y472D02*
X70Y472D01*
X813Y472D02*
X821Y472D01*
X898Y472D02*
X906Y472D01*
X1008Y472D02*
X1015Y472D01*
X0Y471D02*
X7Y471D01*
X61Y471D02*
X70Y471D01*
X811Y471D02*
X819Y471D01*
X899Y471D02*
X907Y471D01*
X1008Y471D02*
X1015Y471D01*
X0Y470D02*
X7Y470D01*
X61Y470D02*
X70Y470D01*
X810Y470D02*
X818Y470D01*
X901Y470D02*
X908Y470D01*
X1008Y470D02*
X1015Y470D01*
X0Y469D02*
X7Y469D01*
X61Y469D02*
X70Y469D01*
X809Y469D02*
X816Y469D01*
X902Y469D02*
X910Y469D01*
X1008Y469D02*
X1015Y469D01*
X0Y468D02*
X7Y468D01*
X61Y468D02*
X70Y468D01*
X808Y468D02*
X815Y468D01*
X904Y468D02*
X911Y468D01*
X1008Y468D02*
X1015Y468D01*
X0Y467D02*
X7Y467D01*
X61Y467D02*
X70Y467D01*
X807Y467D02*
X814Y467D01*
X905Y467D02*
X912Y467D01*
X1008Y467D02*
X1015Y467D01*
X0Y466D02*
X7Y466D01*
X61Y466D02*
X70Y466D01*
X806Y466D02*
X812Y466D01*
X906Y466D02*
X913Y466D01*
X1008Y466D02*
X1015Y466D01*
X0Y465D02*
X7Y465D01*
X61Y465D02*
X70Y465D01*
X805Y465D02*
X811Y465D01*
X907Y465D02*
X914Y465D01*
X1008Y465D02*
X1015Y465D01*
X0Y464D02*
X7Y464D01*
X61Y464D02*
X70Y464D01*
X804Y464D02*
X810Y464D01*
X909Y464D02*
X915Y464D01*
X1008Y464D02*
X1015Y464D01*
X0Y463D02*
X7Y463D01*
X61Y463D02*
X70Y463D01*
X803Y463D02*
X809Y463D01*
X910Y463D02*
X916Y463D01*
X1008Y463D02*
X1015Y463D01*
X0Y462D02*
X7Y462D01*
X61Y462D02*
X70Y462D01*
X802Y462D02*
X808Y462D01*
X911Y462D02*
X917Y462D01*
X1008Y462D02*
X1015Y462D01*
X0Y461D02*
X7Y461D01*
X61Y461D02*
X70Y461D01*
X801Y461D02*
X807Y461D01*
X912Y461D02*
X918Y461D01*
X1008Y461D02*
X1015Y461D01*
X0Y460D02*
X7Y460D01*
X61Y460D02*
X70Y460D01*
X800Y460D02*
X806Y460D01*
X913Y460D02*
X919Y460D01*
X1008Y460D02*
X1015Y460D01*
X0Y459D02*
X7Y459D01*
X61Y459D02*
X70Y459D01*
X799Y459D02*
X805Y459D01*
X914Y459D02*
X920Y459D01*
X1008Y459D02*
X1015Y459D01*
X0Y458D02*
X7Y458D01*
X61Y458D02*
X70Y458D01*
X798Y458D02*
X804Y458D01*
X915Y458D02*
X920Y458D01*
X1008Y458D02*
X1015Y458D01*
X0Y457D02*
X7Y457D01*
X61Y457D02*
X70Y457D01*
X797Y457D02*
X803Y457D01*
X916Y457D02*
X921Y457D01*
X1008Y457D02*
X1015Y457D01*
X0Y456D02*
X7Y456D01*
X61Y456D02*
X70Y456D01*
X797Y456D02*
X802Y456D01*
X916Y456D02*
X922Y456D01*
X1008Y456D02*
X1015Y456D01*
X0Y455D02*
X7Y455D01*
X61Y455D02*
X70Y455D01*
X796Y455D02*
X801Y455D01*
X917Y455D02*
X923Y455D01*
X1008Y455D02*
X1015Y455D01*
X0Y454D02*
X7Y454D01*
X61Y454D02*
X70Y454D01*
X795Y454D02*
X801Y454D01*
X918Y454D02*
X923Y454D01*
X1008Y454D02*
X1015Y454D01*
X0Y453D02*
X7Y453D01*
X61Y453D02*
X70Y453D01*
X795Y453D02*
X800Y453D01*
X919Y453D02*
X924Y453D01*
X1008Y453D02*
X1015Y453D01*
X0Y452D02*
X7Y452D01*
X61Y452D02*
X70Y452D01*
X794Y452D02*
X799Y452D01*
X920Y452D02*
X925Y452D01*
X1008Y452D02*
X1015Y452D01*
X0Y451D02*
X7Y451D01*
X61Y451D02*
X70Y451D01*
X793Y451D02*
X798Y451D01*
X920Y451D02*
X925Y451D01*
X1008Y451D02*
X1015Y451D01*
X0Y450D02*
X7Y450D01*
X61Y450D02*
X70Y450D01*
X792Y450D02*
X798Y450D01*
X921Y450D02*
X926Y450D01*
X1008Y450D02*
X1015Y450D01*
X0Y449D02*
X7Y449D01*
X61Y449D02*
X70Y449D01*
X792Y449D02*
X797Y449D01*
X922Y449D02*
X927Y449D01*
X1008Y449D02*
X1015Y449D01*
X0Y448D02*
X7Y448D01*
X62Y448D02*
X71Y448D01*
X791Y448D02*
X796Y448D01*
X922Y448D02*
X927Y448D01*
X1008Y448D02*
X1015Y448D01*
X0Y447D02*
X7Y447D01*
X62Y447D02*
X71Y447D01*
X791Y447D02*
X796Y447D01*
X923Y447D02*
X928Y447D01*
X1008Y447D02*
X1015Y447D01*
X0Y446D02*
X7Y446D01*
X62Y446D02*
X71Y446D01*
X790Y446D02*
X795Y446D01*
X924Y446D02*
X928Y446D01*
X1008Y446D02*
X1015Y446D01*
X0Y445D02*
X7Y445D01*
X62Y445D02*
X71Y445D01*
X790Y445D02*
X794Y445D01*
X924Y445D02*
X929Y445D01*
X1008Y445D02*
X1015Y445D01*
X0Y444D02*
X7Y444D01*
X62Y444D02*
X71Y444D01*
X789Y444D02*
X794Y444D01*
X925Y444D02*
X929Y444D01*
X1008Y444D02*
X1015Y444D01*
X0Y443D02*
X7Y443D01*
X62Y443D02*
X71Y443D01*
X789Y443D02*
X793Y443D01*
X925Y443D02*
X930Y443D01*
X1008Y443D02*
X1015Y443D01*
X0Y442D02*
X7Y442D01*
X63Y442D02*
X72Y442D01*
X788Y442D02*
X793Y442D01*
X926Y442D02*
X930Y442D01*
X1008Y442D02*
X1015Y442D01*
X0Y441D02*
X7Y441D01*
X63Y441D02*
X72Y441D01*
X788Y441D02*
X792Y441D01*
X926Y441D02*
X931Y441D01*
X1008Y441D02*
X1015Y441D01*
X0Y440D02*
X7Y440D01*
X63Y440D02*
X72Y440D01*
X787Y440D02*
X792Y440D01*
X927Y440D02*
X931Y440D01*
X1008Y440D02*
X1015Y440D01*
X0Y439D02*
X7Y439D01*
X63Y439D02*
X72Y439D01*
X787Y439D02*
X791Y439D01*
X927Y439D02*
X932Y439D01*
X1008Y439D02*
X1015Y439D01*
X0Y438D02*
X7Y438D01*
X63Y438D02*
X72Y438D01*
X786Y438D02*
X791Y438D01*
X928Y438D02*
X932Y438D01*
X1008Y438D02*
X1015Y438D01*
X0Y437D02*
X7Y437D01*
X63Y437D02*
X73Y437D01*
X786Y437D02*
X790Y437D01*
X928Y437D02*
X932Y437D01*
X1008Y437D02*
X1015Y437D01*
X0Y436D02*
X7Y436D01*
X64Y436D02*
X73Y436D01*
X786Y436D02*
X790Y436D01*
X929Y436D02*
X933Y436D01*
X1008Y436D02*
X1015Y436D01*
X0Y435D02*
X7Y435D01*
X64Y435D02*
X73Y435D01*
X785Y435D02*
X790Y435D01*
X929Y435D02*
X933Y435D01*
X1008Y435D02*
X1015Y435D01*
X0Y434D02*
X7Y434D01*
X64Y434D02*
X73Y434D01*
X785Y434D02*
X789Y434D01*
X929Y434D02*
X934Y434D01*
X1008Y434D02*
X1015Y434D01*
X0Y433D02*
X7Y433D01*
X64Y433D02*
X74Y433D01*
X785Y433D02*
X789Y433D01*
X930Y433D02*
X934Y433D01*
X1008Y433D02*
X1015Y433D01*
X0Y432D02*
X7Y432D01*
X65Y432D02*
X74Y432D01*
X784Y432D02*
X789Y432D01*
X930Y432D02*
X934Y432D01*
X1008Y432D02*
X1015Y432D01*
X0Y431D02*
X7Y431D01*
X65Y431D02*
X74Y431D01*
X784Y431D02*
X788Y431D01*
X931Y431D02*
X934Y431D01*
X1008Y431D02*
X1015Y431D01*
X0Y430D02*
X7Y430D01*
X65Y430D02*
X74Y430D01*
X784Y430D02*
X788Y430D01*
X931Y430D02*
X935Y430D01*
X1008Y430D02*
X1015Y430D01*
X0Y429D02*
X7Y429D01*
X65Y429D02*
X75Y429D01*
X783Y429D02*
X788Y429D01*
X931Y429D02*
X935Y429D01*
X1008Y429D02*
X1015Y429D01*
X0Y428D02*
X7Y428D01*
X66Y428D02*
X75Y428D01*
X783Y428D02*
X787Y428D01*
X931Y428D02*
X935Y428D01*
X1008Y428D02*
X1015Y428D01*
X0Y427D02*
X7Y427D01*
X66Y427D02*
X75Y427D01*
X783Y427D02*
X787Y427D01*
X932Y427D02*
X936Y427D01*
X1008Y427D02*
X1015Y427D01*
X0Y426D02*
X7Y426D01*
X66Y426D02*
X76Y426D01*
X783Y426D02*
X787Y426D01*
X932Y426D02*
X936Y426D01*
X1008Y426D02*
X1015Y426D01*
X0Y425D02*
X7Y425D01*
X67Y425D02*
X76Y425D01*
X782Y425D02*
X786Y425D01*
X932Y425D02*
X936Y425D01*
X1008Y425D02*
X1015Y425D01*
X0Y424D02*
X7Y424D01*
X67Y424D02*
X76Y424D01*
X782Y424D02*
X786Y424D01*
X833Y424D02*
X849Y424D01*
X862Y424D02*
X875Y424D01*
X932Y424D02*
X936Y424D01*
X1008Y424D02*
X1015Y424D01*
X0Y423D02*
X7Y423D01*
X67Y423D02*
X77Y423D01*
X782Y423D02*
X786Y423D01*
X832Y423D02*
X851Y423D01*
X861Y423D02*
X878Y423D01*
X933Y423D02*
X936Y423D01*
X1008Y423D02*
X1015Y423D01*
X0Y422D02*
X7Y422D01*
X68Y422D02*
X77Y422D01*
X782Y422D02*
X786Y422D01*
X831Y422D02*
X851Y422D01*
X861Y422D02*
X879Y422D01*
X933Y422D02*
X937Y422D01*
X1008Y422D02*
X1015Y422D01*
X0Y421D02*
X7Y421D01*
X68Y421D02*
X78Y421D01*
X782Y421D02*
X786Y421D01*
X832Y421D02*
X851Y421D01*
X861Y421D02*
X880Y421D01*
X933Y421D02*
X937Y421D01*
X1008Y421D02*
X1015Y421D01*
X0Y420D02*
X7Y420D01*
X68Y420D02*
X78Y420D01*
X782Y420D02*
X785Y420D01*
X833Y420D02*
X850Y420D01*
X861Y420D02*
X881Y420D01*
X933Y420D02*
X937Y420D01*
X1008Y420D02*
X1015Y420D01*
X0Y419D02*
X7Y419D01*
X69Y419D02*
X78Y419D01*
X781Y419D02*
X785Y419D01*
X840Y419D02*
X843Y419D01*
X861Y419D02*
X865Y419D01*
X877Y419D02*
X881Y419D01*
X933Y419D02*
X937Y419D01*
X1008Y419D02*
X1015Y419D01*
X0Y418D02*
X7Y418D01*
X69Y418D02*
X79Y418D01*
X781Y418D02*
X785Y418D01*
X840Y418D02*
X843Y418D01*
X861Y418D02*
X865Y418D01*
X878Y418D02*
X881Y418D01*
X933Y418D02*
X937Y418D01*
X1008Y418D02*
X1015Y418D01*
X0Y417D02*
X7Y417D01*
X69Y417D02*
X79Y417D01*
X781Y417D02*
X785Y417D01*
X840Y417D02*
X843Y417D01*
X861Y417D02*
X865Y417D01*
X878Y417D02*
X881Y417D01*
X934Y417D02*
X937Y417D01*
X1008Y417D02*
X1015Y417D01*
X0Y416D02*
X7Y416D01*
X70Y416D02*
X80Y416D01*
X781Y416D02*
X785Y416D01*
X840Y416D02*
X843Y416D01*
X861Y416D02*
X865Y416D01*
X878Y416D02*
X881Y416D01*
X934Y416D02*
X937Y416D01*
X1008Y416D02*
X1015Y416D01*
X0Y415D02*
X7Y415D01*
X70Y415D02*
X80Y415D01*
X781Y415D02*
X785Y415D01*
X840Y415D02*
X843Y415D01*
X861Y415D02*
X865Y415D01*
X878Y415D02*
X881Y415D01*
X934Y415D02*
X938Y415D01*
X1008Y415D02*
X1015Y415D01*
X0Y414D02*
X7Y414D01*
X71Y414D02*
X81Y414D01*
X781Y414D02*
X785Y414D01*
X840Y414D02*
X843Y414D01*
X861Y414D02*
X865Y414D01*
X877Y414D02*
X881Y414D01*
X934Y414D02*
X938Y414D01*
X1008Y414D02*
X1015Y414D01*
X0Y413D02*
X7Y413D01*
X71Y413D02*
X81Y413D01*
X781Y413D02*
X785Y413D01*
X840Y413D02*
X843Y413D01*
X861Y413D02*
X881Y413D01*
X934Y413D02*
X938Y413D01*
X1008Y413D02*
X1015Y413D01*
X0Y412D02*
X7Y412D01*
X72Y412D02*
X82Y412D01*
X781Y412D02*
X785Y412D01*
X840Y412D02*
X843Y412D01*
X861Y412D02*
X880Y412D01*
X934Y412D02*
X938Y412D01*
X1008Y412D02*
X1015Y412D01*
X0Y411D02*
X7Y411D01*
X72Y411D02*
X82Y411D01*
X781Y411D02*
X785Y411D01*
X840Y411D02*
X843Y411D01*
X861Y411D02*
X879Y411D01*
X934Y411D02*
X938Y411D01*
X1008Y411D02*
X1015Y411D01*
X0Y410D02*
X7Y410D01*
X73Y410D02*
X83Y410D01*
X781Y410D02*
X785Y410D01*
X840Y410D02*
X843Y410D01*
X861Y410D02*
X878Y410D01*
X934Y410D02*
X938Y410D01*
X1008Y410D02*
X1015Y410D01*
X0Y409D02*
X7Y409D01*
X73Y409D02*
X83Y409D01*
X781Y409D02*
X785Y409D01*
X840Y409D02*
X843Y409D01*
X861Y409D02*
X865Y409D01*
X868Y409D02*
X873Y409D01*
X934Y409D02*
X938Y409D01*
X1008Y409D02*
X1015Y409D01*
X0Y408D02*
X7Y408D01*
X74Y408D02*
X84Y408D01*
X781Y408D02*
X785Y408D01*
X840Y408D02*
X843Y408D01*
X861Y408D02*
X865Y408D01*
X869Y408D02*
X873Y408D01*
X934Y408D02*
X938Y408D01*
X1008Y408D02*
X1015Y408D01*
X0Y407D02*
X7Y407D01*
X74Y407D02*
X85Y407D01*
X781Y407D02*
X784Y407D01*
X840Y407D02*
X843Y407D01*
X861Y407D02*
X865Y407D01*
X870Y407D02*
X874Y407D01*
X934Y407D02*
X938Y407D01*
X1008Y407D02*
X1015Y407D01*
X0Y406D02*
X7Y406D01*
X75Y406D02*
X85Y406D01*
X781Y406D02*
X784Y406D01*
X840Y406D02*
X843Y406D01*
X861Y406D02*
X865Y406D01*
X870Y406D02*
X874Y406D01*
X934Y406D02*
X938Y406D01*
X1008Y406D02*
X1015Y406D01*
X0Y405D02*
X7Y405D01*
X75Y405D02*
X86Y405D01*
X781Y405D02*
X784Y405D01*
X840Y405D02*
X843Y405D01*
X861Y405D02*
X865Y405D01*
X871Y405D02*
X875Y405D01*
X934Y405D02*
X938Y405D01*
X1008Y405D02*
X1015Y405D01*
X0Y404D02*
X7Y404D01*
X76Y404D02*
X87Y404D01*
X781Y404D02*
X785Y404D01*
X840Y404D02*
X843Y404D01*
X861Y404D02*
X865Y404D01*
X872Y404D02*
X875Y404D01*
X934Y404D02*
X938Y404D01*
X1008Y404D02*
X1015Y404D01*
X0Y403D02*
X7Y403D01*
X76Y403D02*
X87Y403D01*
X781Y403D02*
X785Y403D01*
X840Y403D02*
X843Y403D01*
X861Y403D02*
X865Y403D01*
X872Y403D02*
X876Y403D01*
X934Y403D02*
X938Y403D01*
X1008Y403D02*
X1015Y403D01*
X0Y402D02*
X7Y402D01*
X77Y402D02*
X88Y402D01*
X781Y402D02*
X785Y402D01*
X840Y402D02*
X843Y402D01*
X861Y402D02*
X865Y402D01*
X873Y402D02*
X877Y402D01*
X934Y402D02*
X938Y402D01*
X1008Y402D02*
X1015Y402D01*
X0Y401D02*
X7Y401D01*
X78Y401D02*
X89Y401D01*
X781Y401D02*
X785Y401D01*
X840Y401D02*
X843Y401D01*
X861Y401D02*
X865Y401D01*
X873Y401D02*
X877Y401D01*
X934Y401D02*
X938Y401D01*
X1008Y401D02*
X1015Y401D01*
X0Y400D02*
X7Y400D01*
X78Y400D02*
X90Y400D01*
X781Y400D02*
X785Y400D01*
X840Y400D02*
X843Y400D01*
X861Y400D02*
X865Y400D01*
X874Y400D02*
X878Y400D01*
X934Y400D02*
X937Y400D01*
X1008Y400D02*
X1015Y400D01*
X0Y399D02*
X7Y399D01*
X79Y399D02*
X90Y399D01*
X781Y399D02*
X785Y399D01*
X840Y399D02*
X843Y399D01*
X864Y399D02*
X865Y399D01*
X874Y399D02*
X878Y399D01*
X934Y399D02*
X937Y399D01*
X1008Y399D02*
X1015Y399D01*
X0Y398D02*
X7Y398D01*
X80Y398D02*
X91Y398D01*
X781Y398D02*
X785Y398D01*
X840Y398D02*
X843Y398D01*
X875Y398D02*
X879Y398D01*
X933Y398D02*
X937Y398D01*
X1008Y398D02*
X1015Y398D01*
X0Y397D02*
X7Y397D01*
X80Y397D02*
X92Y397D01*
X781Y397D02*
X785Y397D01*
X840Y397D02*
X843Y397D01*
X876Y397D02*
X880Y397D01*
X933Y397D02*
X937Y397D01*
X1008Y397D02*
X1015Y397D01*
X0Y396D02*
X7Y396D01*
X81Y396D02*
X93Y396D01*
X782Y396D02*
X785Y396D01*
X839Y396D02*
X843Y396D01*
X876Y396D02*
X880Y396D01*
X933Y396D02*
X937Y396D01*
X1008Y396D02*
X1015Y396D01*
X0Y395D02*
X7Y395D01*
X82Y395D02*
X94Y395D01*
X782Y395D02*
X786Y395D01*
X832Y395D02*
X842Y395D01*
X877Y395D02*
X881Y395D01*
X933Y395D02*
X937Y395D01*
X1008Y395D02*
X1015Y395D01*
X0Y394D02*
X7Y394D01*
X83Y394D02*
X95Y394D01*
X782Y394D02*
X786Y394D01*
X831Y394D02*
X840Y394D01*
X878Y394D02*
X881Y394D01*
X933Y394D02*
X937Y394D01*
X1008Y394D02*
X1015Y394D01*
X0Y393D02*
X7Y393D01*
X84Y393D02*
X97Y393D01*
X782Y393D02*
X786Y393D01*
X831Y393D02*
X839Y393D01*
X880Y393D02*
X881Y393D01*
X932Y393D02*
X936Y393D01*
X1008Y393D02*
X1015Y393D01*
X0Y392D02*
X7Y392D01*
X85Y392D02*
X98Y392D01*
X782Y392D02*
X786Y392D01*
X832Y392D02*
X837Y392D01*
X932Y392D02*
X936Y392D01*
X1008Y392D02*
X1015Y392D01*
X0Y391D02*
X7Y391D01*
X85Y391D02*
X99Y391D01*
X783Y391D02*
X786Y391D01*
X932Y391D02*
X936Y391D01*
X1008Y391D02*
X1015Y391D01*
X0Y390D02*
X7Y390D01*
X86Y390D02*
X101Y390D01*
X783Y390D02*
X787Y390D01*
X932Y390D02*
X936Y390D01*
X1008Y390D02*
X1015Y390D01*
X0Y389D02*
X7Y389D01*
X87Y389D02*
X102Y389D01*
X783Y389D02*
X787Y389D01*
X932Y389D02*
X936Y389D01*
X1008Y389D02*
X1015Y389D01*
X0Y388D02*
X7Y388D01*
X89Y388D02*
X104Y388D01*
X783Y388D02*
X787Y388D01*
X931Y388D02*
X935Y388D01*
X1008Y388D02*
X1015Y388D01*
X0Y387D02*
X7Y387D01*
X90Y387D02*
X107Y387D01*
X784Y387D02*
X788Y387D01*
X931Y387D02*
X935Y387D01*
X1008Y387D02*
X1015Y387D01*
X0Y386D02*
X7Y386D01*
X91Y386D02*
X110Y386D01*
X784Y386D02*
X788Y386D01*
X931Y386D02*
X935Y386D01*
X1008Y386D02*
X1015Y386D01*
X0Y385D02*
X7Y385D01*
X92Y385D02*
X118Y385D01*
X784Y385D02*
X788Y385D01*
X930Y385D02*
X934Y385D01*
X1008Y385D02*
X1015Y385D01*
X0Y384D02*
X7Y384D01*
X93Y384D02*
X120Y384D01*
X784Y384D02*
X788Y384D01*
X930Y384D02*
X934Y384D01*
X1008Y384D02*
X1015Y384D01*
X0Y383D02*
X7Y383D01*
X95Y383D02*
X121Y383D01*
X785Y383D02*
X789Y383D01*
X930Y383D02*
X934Y383D01*
X1008Y383D02*
X1015Y383D01*
X0Y382D02*
X7Y382D01*
X96Y382D02*
X121Y382D01*
X785Y382D02*
X789Y382D01*
X929Y382D02*
X934Y382D01*
X1008Y382D02*
X1015Y382D01*
X0Y381D02*
X7Y381D01*
X98Y381D02*
X121Y381D01*
X785Y381D02*
X790Y381D01*
X929Y381D02*
X933Y381D01*
X1008Y381D02*
X1015Y381D01*
X0Y380D02*
X7Y380D01*
X100Y380D02*
X120Y380D01*
X786Y380D02*
X790Y380D01*
X928Y380D02*
X933Y380D01*
X1008Y380D02*
X1015Y380D01*
X0Y379D02*
X7Y379D01*
X102Y379D02*
X120Y379D01*
X786Y379D02*
X790Y379D01*
X928Y379D02*
X932Y379D01*
X1008Y379D02*
X1015Y379D01*
X0Y378D02*
X7Y378D01*
X104Y378D02*
X120Y378D01*
X787Y378D02*
X791Y378D01*
X928Y378D02*
X932Y378D01*
X1008Y378D02*
X1015Y378D01*
X0Y377D02*
X7Y377D01*
X107Y377D02*
X119Y377D01*
X787Y377D02*
X791Y377D01*
X927Y377D02*
X932Y377D01*
X1008Y377D02*
X1015Y377D01*
X0Y376D02*
X7Y376D01*
X111Y376D02*
X119Y376D01*
X787Y376D02*
X792Y376D01*
X927Y376D02*
X931Y376D01*
X1008Y376D02*
X1015Y376D01*
X0Y375D02*
X7Y375D01*
X788Y375D02*
X792Y375D01*
X926Y375D02*
X931Y375D01*
X1008Y375D02*
X1015Y375D01*
X0Y374D02*
X7Y374D01*
X788Y374D02*
X793Y374D01*
X926Y374D02*
X930Y374D01*
X1008Y374D02*
X1015Y374D01*
X0Y373D02*
X7Y373D01*
X789Y373D02*
X793Y373D01*
X925Y373D02*
X930Y373D01*
X1008Y373D02*
X1015Y373D01*
X0Y372D02*
X7Y372D01*
X789Y372D02*
X794Y372D01*
X925Y372D02*
X929Y372D01*
X1008Y372D02*
X1015Y372D01*
X0Y371D02*
X7Y371D01*
X790Y371D02*
X794Y371D01*
X924Y371D02*
X929Y371D01*
X1008Y371D02*
X1015Y371D01*
X0Y370D02*
X7Y370D01*
X790Y370D02*
X795Y370D01*
X923Y370D02*
X928Y370D01*
X1008Y370D02*
X1015Y370D01*
X0Y369D02*
X7Y369D01*
X791Y369D02*
X796Y369D01*
X923Y369D02*
X928Y369D01*
X1008Y369D02*
X1015Y369D01*
X0Y368D02*
X7Y368D01*
X791Y368D02*
X796Y368D01*
X922Y368D02*
X927Y368D01*
X1008Y368D02*
X1015Y368D01*
X0Y367D02*
X7Y367D01*
X792Y367D02*
X797Y367D01*
X921Y367D02*
X927Y367D01*
X1008Y367D02*
X1015Y367D01*
X0Y366D02*
X7Y366D01*
X793Y366D02*
X798Y366D01*
X921Y366D02*
X926Y366D01*
X1008Y366D02*
X1015Y366D01*
X0Y365D02*
X7Y365D01*
X793Y365D02*
X798Y365D01*
X920Y365D02*
X925Y365D01*
X1008Y365D02*
X1015Y365D01*
X0Y364D02*
X7Y364D01*
X794Y364D02*
X799Y364D01*
X919Y364D02*
X925Y364D01*
X1008Y364D02*
X1015Y364D01*
X0Y363D02*
X7Y363D01*
X795Y363D02*
X800Y363D01*
X919Y363D02*
X924Y363D01*
X1008Y363D02*
X1015Y363D01*
X0Y362D02*
X7Y362D01*
X795Y362D02*
X801Y362D01*
X918Y362D02*
X923Y362D01*
X1008Y362D02*
X1015Y362D01*
X0Y361D02*
X7Y361D01*
X796Y361D02*
X801Y361D01*
X917Y361D02*
X923Y361D01*
X1008Y361D02*
X1015Y361D01*
X0Y360D02*
X7Y360D01*
X797Y360D02*
X802Y360D01*
X916Y360D02*
X922Y360D01*
X1008Y360D02*
X1015Y360D01*
X0Y359D02*
X7Y359D01*
X798Y359D02*
X803Y359D01*
X915Y359D02*
X921Y359D01*
X1008Y359D02*
X1015Y359D01*
X0Y358D02*
X7Y358D01*
X798Y358D02*
X804Y358D01*
X914Y358D02*
X920Y358D01*
X1008Y358D02*
X1015Y358D01*
X0Y357D02*
X7Y357D01*
X799Y357D02*
X805Y357D01*
X914Y357D02*
X919Y357D01*
X1008Y357D02*
X1015Y357D01*
X0Y356D02*
X7Y356D01*
X800Y356D02*
X806Y356D01*
X913Y356D02*
X919Y356D01*
X1008Y356D02*
X1015Y356D01*
X0Y355D02*
X7Y355D01*
X801Y355D02*
X807Y355D01*
X912Y355D02*
X918Y355D01*
X1008Y355D02*
X1015Y355D01*
X0Y354D02*
X7Y354D01*
X802Y354D02*
X808Y354D01*
X911Y354D02*
X917Y354D01*
X1008Y354D02*
X1015Y354D01*
X0Y353D02*
X7Y353D01*
X803Y353D02*
X809Y353D01*
X909Y353D02*
X916Y353D01*
X1008Y353D02*
X1015Y353D01*
X0Y352D02*
X7Y352D01*
X804Y352D02*
X810Y352D01*
X908Y352D02*
X915Y352D01*
X1008Y352D02*
X1015Y352D01*
X0Y351D02*
X7Y351D01*
X805Y351D02*
X812Y351D01*
X907Y351D02*
X914Y351D01*
X1008Y351D02*
X1015Y351D01*
X0Y350D02*
X7Y350D01*
X806Y350D02*
X813Y350D01*
X906Y350D02*
X913Y350D01*
X1008Y350D02*
X1015Y350D01*
X0Y349D02*
X7Y349D01*
X807Y349D02*
X825Y349D01*
X893Y349D02*
X912Y349D01*
X1008Y349D02*
X1015Y349D01*
X0Y348D02*
X7Y348D01*
X808Y348D02*
X826Y348D01*
X893Y348D02*
X911Y348D01*
X1008Y348D02*
X1015Y348D01*
X0Y347D02*
X7Y347D01*
X809Y347D02*
X826Y347D01*
X892Y347D02*
X909Y347D01*
X1008Y347D02*
X1015Y347D01*
X0Y346D02*
X7Y346D01*
X811Y346D02*
X827Y346D01*
X892Y346D02*
X908Y346D01*
X1008Y346D02*
X1015Y346D01*
X0Y345D02*
X7Y345D01*
X812Y345D02*
X827Y345D01*
X891Y345D02*
X907Y345D01*
X1008Y345D02*
X1015Y345D01*
X0Y344D02*
X7Y344D01*
X1008Y344D02*
X1015Y344D01*
X0Y343D02*
X7Y343D01*
X1008Y343D02*
X1015Y343D01*
X0Y342D02*
X7Y342D01*
X1008Y342D02*
X1015Y342D01*
X0Y341D02*
X7Y341D01*
X1008Y341D02*
X1015Y341D01*
X0Y340D02*
X7Y340D01*
X1008Y340D02*
X1015Y340D01*
X0Y339D02*
X7Y339D01*
X1008Y339D02*
X1015Y339D01*
X0Y338D02*
X7Y338D01*
X498Y338D02*
X502Y338D01*
X1008Y338D02*
X1015Y338D01*
X0Y337D02*
X7Y337D01*
X431Y337D02*
X450Y337D01*
X497Y337D02*
X502Y337D01*
X584Y337D02*
X592Y337D01*
X614Y337D02*
X625Y337D01*
X1008Y337D02*
X1015Y337D01*
X0Y336D02*
X7Y336D01*
X409Y336D02*
X412Y336D01*
X431Y336D02*
X451Y336D01*
X497Y336D02*
X502Y336D01*
X582Y336D02*
X593Y336D01*
X612Y336D02*
X626Y336D01*
X1008Y336D02*
X1015Y336D01*
X0Y335D02*
X7Y335D01*
X409Y335D02*
X412Y335D01*
X431Y335D02*
X451Y335D01*
X466Y335D02*
X467Y335D01*
X497Y335D02*
X502Y335D01*
X581Y335D02*
X593Y335D01*
X611Y335D02*
X627Y335D01*
X1008Y335D02*
X1015Y335D01*
X0Y334D02*
X7Y334D01*
X409Y334D02*
X413Y334D01*
X431Y334D02*
X451Y334D01*
X465Y334D02*
X468Y334D01*
X497Y334D02*
X502Y334D01*
X582Y334D02*
X593Y334D01*
X612Y334D02*
X628Y334D01*
X1008Y334D02*
X1015Y334D01*
X0Y333D02*
X7Y333D01*
X408Y333D02*
X413Y333D01*
X431Y333D02*
X451Y333D01*
X465Y333D02*
X468Y333D01*
X499Y333D02*
X501Y333D01*
X583Y333D02*
X593Y333D01*
X613Y333D02*
X629Y333D01*
X1008Y333D02*
X1015Y333D01*
X0Y332D02*
X7Y332D01*
X408Y332D02*
X413Y332D01*
X431Y332D02*
X434Y332D01*
X439Y332D02*
X442Y332D01*
X447Y332D02*
X451Y332D01*
X465Y332D02*
X468Y332D01*
X590Y332D02*
X593Y332D01*
X628Y332D02*
X630Y332D01*
X1008Y332D02*
X1015Y332D01*
X0Y331D02*
X7Y331D01*
X408Y331D02*
X413Y331D01*
X431Y331D02*
X434Y331D01*
X439Y331D02*
X442Y331D01*
X447Y331D02*
X450Y331D01*
X465Y331D02*
X468Y331D01*
X590Y331D02*
X593Y331D01*
X628Y331D02*
X631Y331D01*
X1008Y331D02*
X1015Y331D01*
X0Y330D02*
X7Y330D01*
X129Y330D02*
X132Y330D01*
X187Y330D02*
X190Y330D01*
X407Y330D02*
X414Y330D01*
X431Y330D02*
X433Y330D01*
X439Y330D02*
X442Y330D01*
X448Y330D02*
X450Y330D01*
X465Y330D02*
X468Y330D01*
X590Y330D02*
X593Y330D01*
X628Y330D02*
X631Y330D01*
X1008Y330D02*
X1015Y330D01*
X0Y329D02*
X7Y329D01*
X126Y329D02*
X134Y329D01*
X186Y329D02*
X194Y329D01*
X407Y329D02*
X414Y329D01*
X439Y329D02*
X442Y329D01*
X465Y329D02*
X468Y329D01*
X590Y329D02*
X593Y329D01*
X628Y329D02*
X631Y329D01*
X1008Y329D02*
X1015Y329D01*
X0Y328D02*
X7Y328D01*
X122Y328D02*
X135Y328D01*
X184Y328D02*
X197Y328D01*
X407Y328D02*
X414Y328D01*
X439Y328D02*
X442Y328D01*
X462Y328D02*
X477Y328D01*
X494Y328D02*
X501Y328D01*
X523Y328D02*
X523Y328D01*
X531Y328D02*
X536Y328D01*
X553Y328D02*
X553Y328D01*
X569Y328D02*
X570Y328D01*
X590Y328D02*
X593Y328D01*
X628Y328D02*
X631Y328D01*
X1008Y328D02*
X1015Y328D01*
X0Y327D02*
X7Y327D01*
X120Y327D02*
X137Y327D01*
X183Y327D02*
X200Y327D01*
X407Y327D02*
X415Y327D01*
X439Y327D02*
X442Y327D01*
X461Y327D02*
X478Y327D01*
X493Y327D02*
X502Y327D01*
X521Y327D02*
X524Y327D01*
X529Y327D02*
X538Y327D01*
X552Y327D02*
X554Y327D01*
X568Y327D02*
X571Y327D01*
X590Y327D02*
X593Y327D01*
X628Y327D02*
X631Y327D01*
X1008Y327D02*
X1015Y327D01*
X0Y326D02*
X7Y326D01*
X117Y326D02*
X138Y326D01*
X181Y326D02*
X203Y326D01*
X406Y326D02*
X415Y326D01*
X439Y326D02*
X442Y326D01*
X461Y326D02*
X479Y326D01*
X493Y326D02*
X502Y326D01*
X521Y326D02*
X524Y326D01*
X527Y326D02*
X539Y326D01*
X551Y326D02*
X554Y326D01*
X568Y326D02*
X571Y326D01*
X590Y326D02*
X593Y326D01*
X628Y326D02*
X631Y326D01*
X1008Y326D02*
X1015Y326D01*
X0Y325D02*
X7Y325D01*
X114Y325D02*
X140Y325D01*
X180Y325D02*
X205Y325D01*
X406Y325D02*
X409Y325D01*
X412Y325D02*
X415Y325D01*
X439Y325D02*
X442Y325D01*
X461Y325D02*
X478Y325D01*
X493Y325D02*
X502Y325D01*
X521Y325D02*
X539Y325D01*
X551Y325D02*
X554Y325D01*
X568Y325D02*
X571Y325D01*
X590Y325D02*
X593Y325D01*
X628Y325D02*
X631Y325D01*
X1008Y325D02*
X1015Y325D01*
X0Y324D02*
X7Y324D01*
X112Y324D02*
X137Y324D01*
X183Y324D02*
X208Y324D01*
X406Y324D02*
X409Y324D01*
X412Y324D02*
X415Y324D01*
X439Y324D02*
X442Y324D01*
X463Y324D02*
X477Y324D01*
X495Y324D02*
X502Y324D01*
X521Y324D02*
X540Y324D01*
X551Y324D02*
X554Y324D01*
X568Y324D02*
X571Y324D01*
X590Y324D02*
X593Y324D01*
X628Y324D02*
X631Y324D01*
X1008Y324D02*
X1015Y324D01*
X0Y323D02*
X7Y323D01*
X110Y323D02*
X132Y323D01*
X187Y323D02*
X210Y323D01*
X405Y323D02*
X409Y323D01*
X412Y323D02*
X416Y323D01*
X439Y323D02*
X442Y323D01*
X465Y323D02*
X468Y323D01*
X499Y323D02*
X502Y323D01*
X521Y323D02*
X530Y323D01*
X537Y323D02*
X540Y323D01*
X551Y323D02*
X555Y323D01*
X568Y323D02*
X571Y323D01*
X590Y323D02*
X593Y323D01*
X626Y323D02*
X631Y323D01*
X1008Y323D02*
X1015Y323D01*
X0Y322D02*
X7Y322D01*
X108Y322D02*
X129Y322D01*
X191Y322D02*
X212Y322D01*
X405Y322D02*
X408Y322D01*
X413Y322D02*
X416Y322D01*
X439Y322D02*
X442Y322D01*
X465Y322D02*
X468Y322D01*
X499Y322D02*
X502Y322D01*
X521Y322D02*
X528Y322D01*
X537Y322D02*
X540Y322D01*
X551Y322D02*
X555Y322D01*
X567Y322D02*
X571Y322D01*
X590Y322D02*
X593Y322D01*
X616Y322D02*
X630Y322D01*
X1008Y322D02*
X1015Y322D01*
X0Y321D02*
X7Y321D01*
X106Y321D02*
X125Y321D01*
X194Y321D02*
X214Y321D01*
X405Y321D02*
X408Y321D01*
X413Y321D02*
X416Y321D01*
X439Y321D02*
X442Y321D01*
X465Y321D02*
X468Y321D01*
X499Y321D02*
X502Y321D01*
X521Y321D02*
X527Y321D01*
X537Y321D02*
X540Y321D01*
X552Y321D02*
X555Y321D01*
X567Y321D02*
X570Y321D01*
X590Y321D02*
X593Y321D01*
X616Y321D02*
X630Y321D01*
X1008Y321D02*
X1015Y321D01*
X0Y320D02*
X7Y320D01*
X104Y320D02*
X122Y320D01*
X198Y320D02*
X216Y320D01*
X405Y320D02*
X408Y320D01*
X413Y320D02*
X417Y320D01*
X439Y320D02*
X442Y320D01*
X465Y320D02*
X468Y320D01*
X499Y320D02*
X502Y320D01*
X521Y320D02*
X525Y320D01*
X537Y320D02*
X540Y320D01*
X552Y320D02*
X556Y320D01*
X566Y320D02*
X570Y320D01*
X590Y320D02*
X593Y320D01*
X616Y320D02*
X630Y320D01*
X1008Y320D02*
X1015Y320D01*
X0Y319D02*
X7Y319D01*
X102Y319D02*
X119Y319D01*
X200Y319D02*
X218Y319D01*
X404Y319D02*
X408Y319D01*
X414Y319D02*
X417Y319D01*
X439Y319D02*
X442Y319D01*
X465Y319D02*
X468Y319D01*
X499Y319D02*
X502Y319D01*
X521Y319D02*
X524Y319D01*
X537Y319D02*
X540Y319D01*
X553Y319D02*
X556Y319D01*
X566Y319D02*
X570Y319D01*
X590Y319D02*
X593Y319D01*
X599Y319D02*
X600Y319D01*
X617Y319D02*
X631Y319D01*
X1008Y319D02*
X1015Y319D01*
X0Y318D02*
X7Y318D01*
X100Y318D02*
X117Y318D01*
X203Y318D02*
X220Y318D01*
X404Y318D02*
X407Y318D01*
X414Y318D02*
X417Y318D01*
X439Y318D02*
X442Y318D01*
X465Y318D02*
X468Y318D01*
X499Y318D02*
X502Y318D01*
X521Y318D02*
X524Y318D01*
X537Y318D02*
X540Y318D01*
X553Y318D02*
X557Y318D01*
X566Y318D02*
X569Y318D01*
X590Y318D02*
X593Y318D01*
X598Y318D02*
X601Y318D01*
X627Y318D02*
X631Y318D01*
X1008Y318D02*
X1015Y318D01*
X0Y317D02*
X7Y317D01*
X98Y317D02*
X114Y317D01*
X205Y317D02*
X221Y317D01*
X404Y317D02*
X407Y317D01*
X414Y317D02*
X417Y317D01*
X439Y317D02*
X442Y317D01*
X465Y317D02*
X468Y317D01*
X499Y317D02*
X502Y317D01*
X521Y317D02*
X524Y317D01*
X537Y317D02*
X540Y317D01*
X553Y317D02*
X557Y317D01*
X565Y317D02*
X569Y317D01*
X590Y317D02*
X593Y317D01*
X598Y317D02*
X601Y317D01*
X628Y317D02*
X631Y317D01*
X1008Y317D02*
X1015Y317D01*
X0Y316D02*
X7Y316D01*
X97Y316D02*
X112Y316D01*
X207Y316D02*
X223Y316D01*
X403Y316D02*
X407Y316D01*
X414Y316D02*
X418Y316D01*
X439Y316D02*
X442Y316D01*
X465Y316D02*
X468Y316D01*
X499Y316D02*
X502Y316D01*
X521Y316D02*
X524Y316D01*
X537Y316D02*
X541Y316D01*
X554Y316D02*
X557Y316D01*
X565Y316D02*
X568Y316D01*
X590Y316D02*
X593Y316D01*
X598Y316D02*
X601Y316D01*
X628Y316D02*
X631Y316D01*
X1008Y316D02*
X1015Y316D01*
X0Y315D02*
X7Y315D01*
X95Y315D02*
X110Y315D01*
X210Y315D02*
X225Y315D01*
X403Y315D02*
X418Y315D01*
X439Y315D02*
X442Y315D01*
X465Y315D02*
X468Y315D01*
X499Y315D02*
X502Y315D01*
X521Y315D02*
X524Y315D01*
X537Y315D02*
X541Y315D01*
X554Y315D02*
X558Y315D01*
X564Y315D02*
X568Y315D01*
X590Y315D02*
X593Y315D01*
X598Y315D02*
X601Y315D01*
X628Y315D02*
X631Y315D01*
X1008Y315D02*
X1015Y315D01*
X0Y314D02*
X7Y314D01*
X93Y314D02*
X108Y314D01*
X212Y314D02*
X226Y314D01*
X403Y314D02*
X418Y314D01*
X439Y314D02*
X442Y314D01*
X465Y314D02*
X468Y314D01*
X499Y314D02*
X502Y314D01*
X521Y314D02*
X524Y314D01*
X537Y314D02*
X541Y314D01*
X555Y314D02*
X558Y314D01*
X564Y314D02*
X567Y314D01*
X590Y314D02*
X593Y314D01*
X598Y314D02*
X601Y314D01*
X628Y314D02*
X631Y314D01*
X1008Y314D02*
X1015Y314D01*
X0Y313D02*
X7Y313D01*
X92Y313D02*
X106Y313D01*
X214Y313D02*
X228Y313D01*
X402Y313D02*
X419Y313D01*
X439Y313D02*
X442Y313D01*
X465Y313D02*
X468Y313D01*
X499Y313D02*
X502Y313D01*
X521Y313D02*
X524Y313D01*
X537Y313D02*
X541Y313D01*
X555Y313D02*
X559Y313D01*
X563Y313D02*
X567Y313D01*
X590Y313D02*
X593Y313D01*
X598Y313D02*
X601Y313D01*
X628Y313D02*
X631Y313D01*
X1008Y313D02*
X1015Y313D01*
X0Y312D02*
X7Y312D01*
X90Y312D02*
X104Y312D01*
X215Y312D02*
X229Y312D01*
X402Y312D02*
X419Y312D01*
X439Y312D02*
X442Y312D01*
X465Y312D02*
X468Y312D01*
X479Y312D02*
X479Y312D01*
X499Y312D02*
X502Y312D01*
X521Y312D02*
X524Y312D01*
X537Y312D02*
X541Y312D01*
X556Y312D02*
X559Y312D01*
X563Y312D02*
X567Y312D01*
X590Y312D02*
X593Y312D01*
X598Y312D02*
X601Y312D01*
X628Y312D02*
X631Y312D01*
X1008Y312D02*
X1015Y312D01*
X0Y311D02*
X7Y311D01*
X89Y311D02*
X102Y311D01*
X217Y311D02*
X231Y311D01*
X402Y311D02*
X405Y311D01*
X416Y311D02*
X419Y311D01*
X439Y311D02*
X442Y311D01*
X465Y311D02*
X468Y311D01*
X478Y311D02*
X480Y311D01*
X499Y311D02*
X502Y311D01*
X521Y311D02*
X524Y311D01*
X538Y311D02*
X541Y311D01*
X556Y311D02*
X560Y311D01*
X562Y311D02*
X566Y311D01*
X590Y311D02*
X593Y311D01*
X598Y311D02*
X601Y311D01*
X628Y311D02*
X631Y311D01*
X786Y311D02*
X791Y311D01*
X929Y311D02*
X932Y311D01*
X1008Y311D02*
X1015Y311D01*
X0Y310D02*
X7Y310D01*
X88Y310D02*
X101Y310D01*
X219Y310D02*
X232Y310D01*
X402Y310D02*
X405Y310D01*
X416Y310D02*
X420Y310D01*
X439Y310D02*
X442Y310D01*
X465Y310D02*
X468Y310D01*
X477Y310D02*
X481Y310D01*
X499Y310D02*
X502Y310D01*
X521Y310D02*
X524Y310D01*
X538Y310D02*
X541Y310D01*
X557Y310D02*
X566Y310D01*
X590Y310D02*
X593Y310D01*
X598Y310D02*
X601Y310D01*
X628Y310D02*
X631Y310D01*
X785Y310D02*
X791Y310D01*
X928Y310D02*
X933Y310D01*
X1008Y310D02*
X1015Y310D01*
X0Y309D02*
X7Y309D01*
X86Y309D02*
X99Y309D01*
X220Y309D02*
X233Y309D01*
X401Y309D02*
X405Y309D01*
X416Y309D02*
X420Y309D01*
X439Y309D02*
X442Y309D01*
X465Y309D02*
X469Y309D01*
X476Y309D02*
X480Y309D01*
X499Y309D02*
X503Y309D01*
X521Y309D02*
X524Y309D01*
X538Y309D02*
X541Y309D01*
X557Y309D02*
X565Y309D01*
X589Y309D02*
X593Y309D01*
X598Y309D02*
X601Y309D01*
X628Y309D02*
X631Y309D01*
X784Y309D02*
X792Y309D01*
X927Y309D02*
X935Y309D01*
X1008Y309D02*
X1015Y309D01*
X0Y308D02*
X7Y308D01*
X85Y308D02*
X97Y308D01*
X222Y308D02*
X235Y308D01*
X401Y308D02*
X404Y308D01*
X417Y308D02*
X420Y308D01*
X439Y308D02*
X442Y308D01*
X466Y308D02*
X480Y308D01*
X494Y308D02*
X508Y308D01*
X521Y308D02*
X524Y308D01*
X538Y308D02*
X541Y308D01*
X557Y308D02*
X565Y308D01*
X582Y308D02*
X601Y308D01*
X612Y308D02*
X631Y308D01*
X783Y308D02*
X792Y308D01*
X927Y308D02*
X936Y308D01*
X1008Y308D02*
X1015Y308D01*
X0Y307D02*
X7Y307D01*
X84Y307D02*
X96Y307D01*
X224Y307D02*
X236Y307D01*
X401Y307D02*
X404Y307D01*
X417Y307D02*
X420Y307D01*
X439Y307D02*
X442Y307D01*
X466Y307D02*
X479Y307D01*
X493Y307D02*
X509Y307D01*
X521Y307D02*
X524Y307D01*
X538Y307D02*
X541Y307D01*
X558Y307D02*
X564Y307D01*
X581Y307D02*
X601Y307D01*
X612Y307D02*
X631Y307D01*
X781Y307D02*
X792Y307D01*
X927Y307D02*
X937Y307D01*
X1008Y307D02*
X1015Y307D01*
X0Y306D02*
X7Y306D01*
X83Y306D02*
X94Y306D01*
X225Y306D02*
X237Y306D01*
X401Y306D02*
X404Y306D01*
X417Y306D02*
X420Y306D01*
X439Y306D02*
X442Y306D01*
X467Y306D02*
X478Y306D01*
X493Y306D02*
X509Y306D01*
X521Y306D02*
X524Y306D01*
X538Y306D02*
X541Y306D01*
X560Y306D02*
X564Y306D01*
X581Y306D02*
X601Y306D01*
X612Y306D02*
X630Y306D01*
X780Y306D02*
X791Y306D01*
X927Y306D02*
X938Y306D01*
X1008Y306D02*
X1015Y306D01*
X0Y305D02*
X7Y305D01*
X81Y305D02*
X93Y305D01*
X226Y305D02*
X238Y305D01*
X401Y305D02*
X403Y305D01*
X418Y305D02*
X420Y305D01*
X440Y305D02*
X441Y305D01*
X469Y305D02*
X477Y305D01*
X494Y305D02*
X508Y305D01*
X522Y305D02*
X523Y305D01*
X539Y305D02*
X540Y305D01*
X560Y305D02*
X563Y305D01*
X582Y305D02*
X600Y305D01*
X612Y305D02*
X629Y305D01*
X779Y305D02*
X790Y305D01*
X928Y305D02*
X940Y305D01*
X1008Y305D02*
X1015Y305D01*
X0Y304D02*
X7Y304D01*
X80Y304D02*
X92Y304D01*
X228Y304D02*
X239Y304D01*
X559Y304D02*
X563Y304D01*
X778Y304D02*
X789Y304D01*
X929Y304D02*
X941Y304D01*
X1008Y304D02*
X1015Y304D01*
X0Y303D02*
X7Y303D01*
X79Y303D02*
X90Y303D01*
X229Y303D02*
X240Y303D01*
X559Y303D02*
X563Y303D01*
X777Y303D02*
X788Y303D01*
X931Y303D02*
X942Y303D01*
X1008Y303D02*
X1015Y303D01*
X0Y302D02*
X7Y302D01*
X78Y302D02*
X89Y302D01*
X230Y302D02*
X242Y302D01*
X559Y302D02*
X562Y302D01*
X776Y302D02*
X787Y302D01*
X932Y302D02*
X943Y302D01*
X1008Y302D02*
X1015Y302D01*
X0Y301D02*
X7Y301D01*
X77Y301D02*
X88Y301D01*
X232Y301D02*
X243Y301D01*
X558Y301D02*
X562Y301D01*
X775Y301D02*
X785Y301D01*
X933Y301D02*
X944Y301D01*
X1008Y301D02*
X1015Y301D01*
X0Y300D02*
X7Y300D01*
X76Y300D02*
X86Y300D01*
X233Y300D02*
X244Y300D01*
X557Y300D02*
X561Y300D01*
X774Y300D02*
X784Y300D01*
X934Y300D02*
X945Y300D01*
X1008Y300D02*
X1015Y300D01*
X0Y299D02*
X7Y299D01*
X75Y299D02*
X85Y299D01*
X234Y299D02*
X245Y299D01*
X552Y299D02*
X561Y299D01*
X773Y299D02*
X783Y299D01*
X935Y299D02*
X946Y299D01*
X1008Y299D02*
X1015Y299D01*
X0Y298D02*
X7Y298D01*
X74Y298D02*
X84Y298D01*
X235Y298D02*
X246Y298D01*
X551Y298D02*
X560Y298D01*
X772Y298D02*
X782Y298D01*
X937Y298D02*
X947Y298D01*
X1008Y298D02*
X1015Y298D01*
X0Y297D02*
X7Y297D01*
X73Y297D02*
X83Y297D01*
X236Y297D02*
X247Y297D01*
X551Y297D02*
X560Y297D01*
X771Y297D02*
X781Y297D01*
X938Y297D02*
X948Y297D01*
X1008Y297D02*
X1015Y297D01*
X0Y296D02*
X7Y296D01*
X72Y296D02*
X82Y296D01*
X238Y296D02*
X248Y296D01*
X552Y296D02*
X559Y296D01*
X770Y296D02*
X780Y296D01*
X939Y296D02*
X949Y296D01*
X1008Y296D02*
X1015Y296D01*
X0Y295D02*
X7Y295D01*
X71Y295D02*
X81Y295D01*
X239Y295D02*
X249Y295D01*
X769Y295D02*
X779Y295D01*
X940Y295D02*
X950Y295D01*
X1008Y295D02*
X1015Y295D01*
X0Y294D02*
X7Y294D01*
X70Y294D02*
X80Y294D01*
X240Y294D02*
X250Y294D01*
X768Y294D02*
X778Y294D01*
X941Y294D02*
X950Y294D01*
X1008Y294D02*
X1015Y294D01*
X0Y293D02*
X7Y293D01*
X69Y293D02*
X79Y293D01*
X241Y293D02*
X250Y293D01*
X767Y293D02*
X777Y293D01*
X942Y293D02*
X951Y293D01*
X1008Y293D02*
X1015Y293D01*
X0Y292D02*
X7Y292D01*
X68Y292D02*
X78Y292D01*
X242Y292D02*
X251Y292D01*
X766Y292D02*
X776Y292D01*
X943Y292D02*
X952Y292D01*
X1008Y292D02*
X1015Y292D01*
X0Y291D02*
X7Y291D01*
X67Y291D02*
X77Y291D01*
X243Y291D02*
X252Y291D01*
X766Y291D02*
X775Y291D01*
X944Y291D02*
X953Y291D01*
X1008Y291D02*
X1015Y291D01*
X0Y290D02*
X7Y290D01*
X66Y290D02*
X76Y290D01*
X244Y290D02*
X253Y290D01*
X765Y290D02*
X774Y290D01*
X945Y290D02*
X954Y290D01*
X1008Y290D02*
X1015Y290D01*
X0Y289D02*
X7Y289D01*
X66Y289D02*
X75Y289D01*
X245Y289D02*
X254Y289D01*
X764Y289D02*
X773Y289D01*
X945Y289D02*
X955Y289D01*
X1008Y289D02*
X1015Y289D01*
X0Y288D02*
X7Y288D01*
X65Y288D02*
X74Y288D01*
X245Y288D02*
X255Y288D01*
X763Y288D02*
X772Y288D01*
X946Y288D02*
X955Y288D01*
X1008Y288D02*
X1015Y288D01*
X0Y287D02*
X7Y287D01*
X64Y287D02*
X73Y287D01*
X246Y287D02*
X255Y287D01*
X762Y287D02*
X771Y287D01*
X947Y287D02*
X956Y287D01*
X1008Y287D02*
X1015Y287D01*
X0Y286D02*
X7Y286D01*
X63Y286D02*
X72Y286D01*
X247Y286D02*
X256Y286D01*
X762Y286D02*
X771Y286D01*
X948Y286D02*
X957Y286D01*
X1008Y286D02*
X1015Y286D01*
X0Y285D02*
X7Y285D01*
X63Y285D02*
X72Y285D01*
X248Y285D02*
X257Y285D01*
X761Y285D02*
X770Y285D01*
X949Y285D02*
X958Y285D01*
X1008Y285D02*
X1015Y285D01*
X0Y284D02*
X7Y284D01*
X62Y284D02*
X71Y284D01*
X249Y284D02*
X258Y284D01*
X760Y284D02*
X769Y284D01*
X950Y284D02*
X958Y284D01*
X1008Y284D02*
X1015Y284D01*
X0Y283D02*
X7Y283D01*
X61Y283D02*
X70Y283D01*
X250Y283D02*
X258Y283D01*
X760Y283D02*
X768Y283D01*
X950Y283D02*
X959Y283D01*
X1008Y283D02*
X1015Y283D01*
X0Y282D02*
X7Y282D01*
X60Y282D02*
X69Y282D01*
X250Y282D02*
X259Y282D01*
X759Y282D02*
X767Y282D01*
X951Y282D02*
X960Y282D01*
X1008Y282D02*
X1015Y282D01*
X0Y281D02*
X7Y281D01*
X60Y281D02*
X68Y281D01*
X251Y281D02*
X260Y281D01*
X758Y281D02*
X767Y281D01*
X952Y281D02*
X960Y281D01*
X1008Y281D02*
X1015Y281D01*
X0Y280D02*
X7Y280D01*
X59Y280D02*
X68Y280D01*
X252Y280D02*
X260Y280D01*
X758Y280D02*
X766Y280D01*
X953Y280D02*
X961Y280D01*
X1008Y280D02*
X1015Y280D01*
X0Y279D02*
X7Y279D01*
X58Y279D02*
X67Y279D01*
X253Y279D02*
X261Y279D01*
X757Y279D02*
X765Y279D01*
X953Y279D02*
X962Y279D01*
X1008Y279D02*
X1015Y279D01*
X0Y278D02*
X7Y278D01*
X58Y278D02*
X66Y278D01*
X253Y278D02*
X262Y278D01*
X756Y278D02*
X765Y278D01*
X954Y278D02*
X962Y278D01*
X1008Y278D02*
X1015Y278D01*
X0Y277D02*
X7Y277D01*
X57Y277D02*
X65Y277D01*
X254Y277D02*
X262Y277D01*
X756Y277D02*
X764Y277D01*
X955Y277D02*
X963Y277D01*
X1008Y277D02*
X1015Y277D01*
X0Y276D02*
X7Y276D01*
X56Y276D02*
X65Y276D01*
X255Y276D02*
X263Y276D01*
X755Y276D02*
X763Y276D01*
X955Y276D02*
X964Y276D01*
X1008Y276D02*
X1015Y276D01*
X0Y275D02*
X7Y275D01*
X56Y275D02*
X64Y275D01*
X256Y275D02*
X264Y275D01*
X754Y275D02*
X763Y275D01*
X956Y275D02*
X964Y275D01*
X1008Y275D02*
X1015Y275D01*
X0Y274D02*
X7Y274D01*
X55Y274D02*
X63Y274D01*
X256Y274D02*
X264Y274D01*
X754Y274D02*
X762Y274D01*
X957Y274D02*
X965Y274D01*
X1008Y274D02*
X1015Y274D01*
X0Y273D02*
X7Y273D01*
X55Y273D02*
X63Y273D01*
X257Y273D02*
X265Y273D01*
X753Y273D02*
X761Y273D01*
X957Y273D02*
X965Y273D01*
X1008Y273D02*
X1015Y273D01*
X0Y272D02*
X7Y272D01*
X54Y272D02*
X62Y272D01*
X257Y272D02*
X265Y272D01*
X753Y272D02*
X761Y272D01*
X958Y272D02*
X966Y272D01*
X1008Y272D02*
X1015Y272D01*
X0Y271D02*
X7Y271D01*
X54Y271D02*
X62Y271D01*
X258Y271D02*
X266Y271D01*
X752Y271D02*
X760Y271D01*
X958Y271D02*
X966Y271D01*
X1008Y271D02*
X1015Y271D01*
X0Y270D02*
X7Y270D01*
X53Y270D02*
X61Y270D01*
X259Y270D02*
X266Y270D01*
X752Y270D02*
X760Y270D01*
X959Y270D02*
X967Y270D01*
X1008Y270D02*
X1015Y270D01*
X0Y269D02*
X7Y269D01*
X52Y269D02*
X60Y269D01*
X259Y269D02*
X267Y269D01*
X751Y269D02*
X759Y269D01*
X960Y269D02*
X967Y269D01*
X1008Y269D02*
X1015Y269D01*
X0Y268D02*
X7Y268D01*
X52Y268D02*
X60Y268D01*
X260Y268D02*
X268Y268D01*
X751Y268D02*
X758Y268D01*
X960Y268D02*
X968Y268D01*
X1008Y268D02*
X1015Y268D01*
X0Y267D02*
X7Y267D01*
X51Y267D02*
X59Y267D01*
X260Y267D02*
X268Y267D01*
X750Y267D02*
X758Y267D01*
X961Y267D02*
X968Y267D01*
X1008Y267D02*
X1015Y267D01*
X0Y266D02*
X7Y266D01*
X51Y266D02*
X59Y266D01*
X261Y266D02*
X269Y266D01*
X750Y266D02*
X757Y266D01*
X961Y266D02*
X969Y266D01*
X1008Y266D02*
X1015Y266D01*
X0Y265D02*
X7Y265D01*
X50Y265D02*
X58Y265D01*
X261Y265D02*
X269Y265D01*
X749Y265D02*
X757Y265D01*
X962Y265D02*
X969Y265D01*
X1008Y265D02*
X1015Y265D01*
X0Y264D02*
X7Y264D01*
X50Y264D02*
X58Y264D01*
X262Y264D02*
X270Y264D01*
X749Y264D02*
X756Y264D01*
X962Y264D02*
X970Y264D01*
X1008Y264D02*
X1015Y264D01*
X0Y263D02*
X7Y263D01*
X49Y263D02*
X57Y263D01*
X262Y263D02*
X270Y263D01*
X748Y263D02*
X756Y263D01*
X963Y263D02*
X970Y263D01*
X1008Y263D02*
X1015Y263D01*
X0Y262D02*
X7Y262D01*
X49Y262D02*
X57Y262D01*
X263Y262D02*
X270Y262D01*
X748Y262D02*
X755Y262D01*
X963Y262D02*
X971Y262D01*
X1008Y262D02*
X1015Y262D01*
X0Y261D02*
X7Y261D01*
X49Y261D02*
X56Y261D01*
X263Y261D02*
X271Y261D01*
X747Y261D02*
X755Y261D01*
X964Y261D02*
X971Y261D01*
X1008Y261D02*
X1015Y261D01*
X0Y260D02*
X7Y260D01*
X48Y260D02*
X56Y260D01*
X264Y260D02*
X271Y260D01*
X747Y260D02*
X755Y260D01*
X964Y260D02*
X972Y260D01*
X1008Y260D02*
X1015Y260D01*
X0Y259D02*
X7Y259D01*
X48Y259D02*
X55Y259D01*
X264Y259D02*
X272Y259D01*
X747Y259D02*
X754Y259D01*
X965Y259D02*
X972Y259D01*
X1008Y259D02*
X1015Y259D01*
X0Y258D02*
X7Y258D01*
X47Y258D02*
X55Y258D01*
X265Y258D02*
X272Y258D01*
X746Y258D02*
X754Y258D01*
X965Y258D02*
X972Y258D01*
X1008Y258D02*
X1015Y258D01*
X0Y257D02*
X7Y257D01*
X47Y257D02*
X54Y257D01*
X265Y257D02*
X273Y257D01*
X746Y257D02*
X753Y257D01*
X965Y257D02*
X973Y257D01*
X1008Y257D02*
X1015Y257D01*
X0Y256D02*
X7Y256D01*
X47Y256D02*
X54Y256D01*
X266Y256D02*
X273Y256D01*
X745Y256D02*
X753Y256D01*
X966Y256D02*
X973Y256D01*
X1008Y256D02*
X1015Y256D01*
X0Y255D02*
X7Y255D01*
X46Y255D02*
X53Y255D01*
X266Y255D02*
X273Y255D01*
X745Y255D02*
X752Y255D01*
X966Y255D02*
X973Y255D01*
X1008Y255D02*
X1015Y255D01*
X0Y254D02*
X7Y254D01*
X46Y254D02*
X53Y254D01*
X266Y254D02*
X274Y254D01*
X745Y254D02*
X752Y254D01*
X967Y254D02*
X974Y254D01*
X1008Y254D02*
X1015Y254D01*
X0Y253D02*
X7Y253D01*
X45Y253D02*
X53Y253D01*
X267Y253D02*
X274Y253D01*
X744Y253D02*
X752Y253D01*
X967Y253D02*
X974Y253D01*
X1008Y253D02*
X1015Y253D01*
X0Y252D02*
X7Y252D01*
X45Y252D02*
X52Y252D01*
X267Y252D02*
X274Y252D01*
X744Y252D02*
X751Y252D01*
X967Y252D02*
X974Y252D01*
X1008Y252D02*
X1015Y252D01*
X0Y251D02*
X7Y251D01*
X45Y251D02*
X52Y251D01*
X268Y251D02*
X275Y251D01*
X744Y251D02*
X751Y251D01*
X968Y251D02*
X975Y251D01*
X1008Y251D02*
X1015Y251D01*
X0Y250D02*
X7Y250D01*
X44Y250D02*
X52Y250D01*
X268Y250D02*
X275Y250D01*
X743Y250D02*
X751Y250D01*
X968Y250D02*
X975Y250D01*
X1008Y250D02*
X1015Y250D01*
X0Y249D02*
X7Y249D01*
X44Y249D02*
X51Y249D01*
X268Y249D02*
X275Y249D01*
X743Y249D02*
X750Y249D01*
X968Y249D02*
X975Y249D01*
X1008Y249D02*
X1015Y249D01*
X0Y248D02*
X7Y248D01*
X44Y248D02*
X51Y248D01*
X269Y248D02*
X276Y248D01*
X743Y248D02*
X750Y248D01*
X969Y248D02*
X976Y248D01*
X1008Y248D02*
X1015Y248D01*
X0Y247D02*
X7Y247D01*
X43Y247D02*
X51Y247D01*
X269Y247D02*
X276Y247D01*
X743Y247D02*
X750Y247D01*
X969Y247D02*
X976Y247D01*
X1008Y247D02*
X1015Y247D01*
X0Y246D02*
X7Y246D01*
X43Y246D02*
X50Y246D01*
X269Y246D02*
X276Y246D01*
X742Y246D02*
X749Y246D01*
X969Y246D02*
X976Y246D01*
X1008Y246D02*
X1015Y246D01*
X0Y245D02*
X7Y245D01*
X43Y245D02*
X50Y245D01*
X269Y245D02*
X277Y245D01*
X742Y245D02*
X749Y245D01*
X969Y245D02*
X977Y245D01*
X1008Y245D02*
X1015Y245D01*
X0Y244D02*
X7Y244D01*
X43Y244D02*
X50Y244D01*
X270Y244D02*
X277Y244D01*
X742Y244D02*
X749Y244D01*
X970Y244D02*
X977Y244D01*
X1008Y244D02*
X1015Y244D01*
X0Y243D02*
X7Y243D01*
X42Y243D02*
X49Y243D01*
X270Y243D02*
X277Y243D01*
X741Y243D02*
X748Y243D01*
X797Y243D02*
X824Y243D01*
X899Y243D02*
X917Y243D01*
X970Y243D02*
X977Y243D01*
X1008Y243D02*
X1015Y243D01*
X0Y242D02*
X7Y242D01*
X42Y242D02*
X49Y242D01*
X270Y242D02*
X277Y242D01*
X741Y242D02*
X748Y242D01*
X797Y242D02*
X826Y242D01*
X898Y242D02*
X919Y242D01*
X970Y242D02*
X977Y242D01*
X1008Y242D02*
X1015Y242D01*
X0Y241D02*
X7Y241D01*
X42Y241D02*
X49Y241D01*
X271Y241D02*
X278Y241D01*
X741Y241D02*
X748Y241D01*
X797Y241D02*
X827Y241D01*
X898Y241D02*
X920Y241D01*
X971Y241D02*
X978Y241D01*
X1008Y241D02*
X1015Y241D01*
X0Y240D02*
X7Y240D01*
X42Y240D02*
X49Y240D01*
X271Y240D02*
X278Y240D01*
X741Y240D02*
X748Y240D01*
X797Y240D02*
X828Y240D01*
X898Y240D02*
X921Y240D01*
X971Y240D02*
X978Y240D01*
X1008Y240D02*
X1015Y240D01*
X0Y239D02*
X7Y239D01*
X41Y239D02*
X48Y239D01*
X271Y239D02*
X278Y239D01*
X741Y239D02*
X747Y239D01*
X797Y239D02*
X829Y239D01*
X898Y239D02*
X921Y239D01*
X971Y239D02*
X978Y239D01*
X1008Y239D02*
X1015Y239D01*
X0Y238D02*
X7Y238D01*
X41Y238D02*
X48Y238D01*
X271Y238D02*
X278Y238D01*
X740Y238D02*
X747Y238D01*
X797Y238D02*
X829Y238D01*
X898Y238D02*
X922Y238D01*
X971Y238D02*
X978Y238D01*
X1008Y238D02*
X1015Y238D01*
X0Y237D02*
X7Y237D01*
X41Y237D02*
X48Y237D01*
X272Y237D02*
X279Y237D01*
X740Y237D02*
X747Y237D01*
X797Y237D02*
X830Y237D01*
X900Y237D02*
X923Y237D01*
X971Y237D02*
X978Y237D01*
X1008Y237D02*
X1015Y237D01*
X0Y236D02*
X7Y236D01*
X41Y236D02*
X48Y236D01*
X272Y236D02*
X279Y236D01*
X740Y236D02*
X747Y236D01*
X797Y236D02*
X803Y236D01*
X823Y236D02*
X830Y236D01*
X904Y236D02*
X910Y236D01*
X916Y236D02*
X923Y236D01*
X972Y236D02*
X979Y236D01*
X1008Y236D02*
X1015Y236D01*
X0Y235D02*
X7Y235D01*
X41Y235D02*
X47Y235D01*
X272Y235D02*
X279Y235D01*
X740Y235D02*
X747Y235D01*
X797Y235D02*
X803Y235D01*
X824Y235D02*
X831Y235D01*
X904Y235D02*
X910Y235D01*
X917Y235D02*
X924Y235D01*
X972Y235D02*
X979Y235D01*
X1008Y235D02*
X1015Y235D01*
X0Y234D02*
X7Y234D01*
X40Y234D02*
X47Y234D01*
X272Y234D02*
X279Y234D01*
X740Y234D02*
X746Y234D01*
X797Y234D02*
X803Y234D01*
X825Y234D02*
X831Y234D01*
X904Y234D02*
X910Y234D01*
X917Y234D02*
X924Y234D01*
X972Y234D02*
X979Y234D01*
X1008Y234D02*
X1015Y234D01*
X0Y233D02*
X7Y233D01*
X40Y233D02*
X47Y233D01*
X272Y233D02*
X279Y233D01*
X739Y233D02*
X746Y233D01*
X797Y233D02*
X803Y233D01*
X825Y233D02*
X831Y233D01*
X904Y233D02*
X910Y233D01*
X918Y233D02*
X925Y233D01*
X972Y233D02*
X979Y233D01*
X1008Y233D02*
X1015Y233D01*
X0Y232D02*
X7Y232D01*
X40Y232D02*
X47Y232D01*
X273Y232D02*
X280Y232D01*
X739Y232D02*
X746Y232D01*
X797Y232D02*
X803Y232D01*
X825Y232D02*
X831Y232D01*
X904Y232D02*
X910Y232D01*
X918Y232D02*
X925Y232D01*
X972Y232D02*
X979Y232D01*
X1008Y232D02*
X1015Y232D01*
X0Y231D02*
X7Y231D01*
X40Y231D02*
X47Y231D01*
X273Y231D02*
X280Y231D01*
X739Y231D02*
X746Y231D01*
X797Y231D02*
X803Y231D01*
X825Y231D02*
X831Y231D01*
X904Y231D02*
X910Y231D01*
X919Y231D02*
X926Y231D01*
X973Y231D02*
X979Y231D01*
X1008Y231D02*
X1015Y231D01*
X0Y230D02*
X7Y230D01*
X40Y230D02*
X47Y230D01*
X273Y230D02*
X280Y230D01*
X739Y230D02*
X746Y230D01*
X797Y230D02*
X803Y230D01*
X825Y230D02*
X831Y230D01*
X904Y230D02*
X910Y230D01*
X919Y230D02*
X926Y230D01*
X973Y230D02*
X980Y230D01*
X1008Y230D02*
X1015Y230D01*
X0Y229D02*
X7Y229D01*
X40Y229D02*
X46Y229D01*
X273Y229D02*
X280Y229D01*
X739Y229D02*
X746Y229D01*
X797Y229D02*
X803Y229D01*
X825Y229D02*
X831Y229D01*
X904Y229D02*
X910Y229D01*
X920Y229D02*
X927Y229D01*
X973Y229D02*
X980Y229D01*
X1008Y229D02*
X1015Y229D01*
X0Y228D02*
X7Y228D01*
X39Y228D02*
X46Y228D01*
X273Y228D02*
X280Y228D01*
X739Y228D02*
X746Y228D01*
X797Y228D02*
X803Y228D01*
X824Y228D02*
X831Y228D01*
X847Y228D02*
X849Y228D01*
X904Y228D02*
X910Y228D01*
X920Y228D02*
X927Y228D01*
X973Y228D02*
X980Y228D01*
X1008Y228D02*
X1015Y228D01*
X0Y227D02*
X7Y227D01*
X39Y227D02*
X46Y227D01*
X273Y227D02*
X280Y227D01*
X739Y227D02*
X745Y227D01*
X797Y227D02*
X803Y227D01*
X823Y227D02*
X830Y227D01*
X847Y227D02*
X852Y227D01*
X904Y227D02*
X910Y227D01*
X921Y227D02*
X928Y227D01*
X973Y227D02*
X980Y227D01*
X1008Y227D02*
X1015Y227D01*
X0Y226D02*
X7Y226D01*
X39Y226D02*
X46Y226D01*
X273Y226D02*
X280Y226D01*
X738Y226D02*
X745Y226D01*
X797Y226D02*
X830Y226D01*
X847Y226D02*
X853Y226D01*
X904Y226D02*
X910Y226D01*
X921Y226D02*
X928Y226D01*
X973Y226D02*
X980Y226D01*
X1008Y226D02*
X1015Y226D01*
X0Y225D02*
X7Y225D01*
X39Y225D02*
X46Y225D01*
X274Y225D02*
X280Y225D01*
X738Y225D02*
X745Y225D01*
X797Y225D02*
X830Y225D01*
X847Y225D02*
X853Y225D01*
X904Y225D02*
X910Y225D01*
X922Y225D02*
X929Y225D01*
X973Y225D02*
X980Y225D01*
X1008Y225D02*
X1015Y225D01*
X0Y224D02*
X7Y224D01*
X39Y224D02*
X46Y224D01*
X274Y224D02*
X281Y224D01*
X738Y224D02*
X745Y224D01*
X797Y224D02*
X829Y224D01*
X847Y224D02*
X853Y224D01*
X904Y224D02*
X910Y224D01*
X922Y224D02*
X929Y224D01*
X973Y224D02*
X980Y224D01*
X1008Y224D02*
X1015Y224D01*
X0Y223D02*
X7Y223D01*
X39Y223D02*
X46Y223D01*
X274Y223D02*
X281Y223D01*
X738Y223D02*
X745Y223D01*
X797Y223D02*
X828Y223D01*
X847Y223D02*
X853Y223D01*
X904Y223D02*
X910Y223D01*
X923Y223D02*
X930Y223D01*
X973Y223D02*
X980Y223D01*
X1008Y223D02*
X1015Y223D01*
X0Y222D02*
X7Y222D01*
X39Y222D02*
X46Y222D01*
X274Y222D02*
X281Y222D01*
X738Y222D02*
X745Y222D01*
X797Y222D02*
X827Y222D01*
X847Y222D02*
X853Y222D01*
X904Y222D02*
X910Y222D01*
X923Y222D02*
X930Y222D01*
X974Y222D02*
X980Y222D01*
X1008Y222D02*
X1015Y222D01*
X0Y221D02*
X7Y221D01*
X39Y221D02*
X45Y221D01*
X274Y221D02*
X281Y221D01*
X738Y221D02*
X745Y221D01*
X797Y221D02*
X826Y221D01*
X847Y221D02*
X853Y221D01*
X904Y221D02*
X910Y221D01*
X924Y221D02*
X930Y221D01*
X974Y221D02*
X980Y221D01*
X1008Y221D02*
X1015Y221D01*
X0Y220D02*
X7Y220D01*
X39Y220D02*
X45Y220D01*
X83Y220D02*
X101Y220D01*
X112Y220D02*
X127Y220D01*
X181Y220D02*
X191Y220D01*
X211Y220D02*
X213Y220D01*
X233Y220D02*
X235Y220D01*
X274Y220D02*
X281Y220D01*
X738Y220D02*
X745Y220D01*
X797Y220D02*
X824Y220D01*
X847Y220D02*
X865Y220D01*
X904Y220D02*
X910Y220D01*
X924Y220D02*
X931Y220D01*
X974Y220D02*
X981Y220D01*
X1008Y220D02*
X1015Y220D01*
X0Y219D02*
X7Y219D01*
X39Y219D02*
X45Y219D01*
X82Y219D02*
X101Y219D01*
X112Y219D02*
X129Y219D01*
X179Y219D02*
X192Y219D01*
X209Y219D02*
X215Y219D01*
X233Y219D02*
X235Y219D01*
X274Y219D02*
X281Y219D01*
X738Y219D02*
X745Y219D01*
X797Y219D02*
X804Y219D01*
X809Y219D02*
X817Y219D01*
X847Y219D02*
X866Y219D01*
X904Y219D02*
X910Y219D01*
X925Y219D02*
X931Y219D01*
X974Y219D02*
X981Y219D01*
X1008Y219D02*
X1015Y219D01*
X0Y218D02*
X7Y218D01*
X38Y218D02*
X45Y218D01*
X82Y218D02*
X102Y218D01*
X112Y218D02*
X130Y218D01*
X178Y218D02*
X192Y218D01*
X208Y218D02*
X216Y218D01*
X232Y218D02*
X236Y218D01*
X274Y218D02*
X281Y218D01*
X738Y218D02*
X745Y218D01*
X797Y218D02*
X803Y218D01*
X810Y218D02*
X817Y218D01*
X847Y218D02*
X867Y218D01*
X904Y218D02*
X910Y218D01*
X925Y218D02*
X931Y218D01*
X974Y218D02*
X981Y218D01*
X1008Y218D02*
X1015Y218D01*
X0Y217D02*
X7Y217D01*
X38Y217D02*
X45Y217D01*
X82Y217D02*
X101Y217D01*
X112Y217D02*
X131Y217D01*
X177Y217D02*
X191Y217D01*
X208Y217D02*
X217Y217D01*
X232Y217D02*
X236Y217D01*
X274Y217D02*
X281Y217D01*
X738Y217D02*
X745Y217D01*
X797Y217D02*
X803Y217D01*
X810Y217D02*
X817Y217D01*
X847Y217D02*
X867Y217D01*
X904Y217D02*
X910Y217D01*
X925Y217D02*
X931Y217D01*
X974Y217D02*
X981Y217D01*
X1008Y217D02*
X1015Y217D01*
X0Y216D02*
X7Y216D01*
X38Y216D02*
X45Y216D01*
X90Y216D02*
X94Y216D01*
X112Y216D02*
X115Y216D01*
X127Y216D02*
X131Y216D01*
X177Y216D02*
X181Y216D01*
X207Y216D02*
X211Y216D01*
X213Y216D02*
X217Y216D01*
X232Y216D02*
X236Y216D01*
X274Y216D02*
X281Y216D01*
X738Y216D02*
X745Y216D01*
X797Y216D02*
X803Y216D01*
X811Y216D02*
X818Y216D01*
X847Y216D02*
X867Y216D01*
X904Y216D02*
X910Y216D01*
X925Y216D02*
X931Y216D01*
X974Y216D02*
X981Y216D01*
X1008Y216D02*
X1015Y216D01*
X0Y215D02*
X7Y215D01*
X38Y215D02*
X45Y215D01*
X90Y215D02*
X93Y215D01*
X112Y215D02*
X115Y215D01*
X128Y215D02*
X132Y215D01*
X176Y215D02*
X180Y215D01*
X207Y215D02*
X210Y215D01*
X214Y215D02*
X218Y215D01*
X232Y215D02*
X236Y215D01*
X274Y215D02*
X281Y215D01*
X738Y215D02*
X745Y215D01*
X797Y215D02*
X803Y215D01*
X811Y215D02*
X818Y215D01*
X847Y215D02*
X867Y215D01*
X904Y215D02*
X910Y215D01*
X925Y215D02*
X931Y215D01*
X974Y215D02*
X981Y215D01*
X1008Y215D02*
X1015Y215D01*
X0Y214D02*
X7Y214D01*
X38Y214D02*
X45Y214D01*
X90Y214D02*
X93Y214D01*
X112Y214D02*
X115Y214D01*
X128Y214D02*
X132Y214D01*
X176Y214D02*
X180Y214D01*
X206Y214D02*
X210Y214D01*
X214Y214D02*
X218Y214D01*
X232Y214D02*
X236Y214D01*
X274Y214D02*
X281Y214D01*
X738Y214D02*
X745Y214D01*
X797Y214D02*
X803Y214D01*
X812Y214D02*
X819Y214D01*
X847Y214D02*
X866Y214D01*
X904Y214D02*
X910Y214D01*
X925Y214D02*
X931Y214D01*
X974Y214D02*
X981Y214D01*
X1008Y214D02*
X1015Y214D01*
X0Y213D02*
X7Y213D01*
X38Y213D02*
X45Y213D01*
X90Y213D02*
X93Y213D01*
X112Y213D02*
X115Y213D01*
X128Y213D02*
X132Y213D01*
X175Y213D02*
X179Y213D01*
X206Y213D02*
X209Y213D01*
X215Y213D02*
X219Y213D01*
X232Y213D02*
X236Y213D01*
X274Y213D02*
X281Y213D01*
X738Y213D02*
X745Y213D01*
X797Y213D02*
X803Y213D01*
X812Y213D02*
X820Y213D01*
X847Y213D02*
X854Y213D01*
X904Y213D02*
X910Y213D01*
X924Y213D02*
X931Y213D01*
X974Y213D02*
X981Y213D01*
X1008Y213D02*
X1015Y213D01*
X0Y212D02*
X7Y212D01*
X38Y212D02*
X45Y212D01*
X90Y212D02*
X93Y212D01*
X112Y212D02*
X115Y212D01*
X128Y212D02*
X132Y212D01*
X175Y212D02*
X179Y212D01*
X205Y212D02*
X209Y212D01*
X215Y212D02*
X219Y212D01*
X232Y212D02*
X236Y212D01*
X274Y212D02*
X281Y212D01*
X738Y212D02*
X745Y212D01*
X797Y212D02*
X803Y212D01*
X813Y212D02*
X820Y212D01*
X847Y212D02*
X853Y212D01*
X904Y212D02*
X910Y212D01*
X924Y212D02*
X930Y212D01*
X974Y212D02*
X981Y212D01*
X1008Y212D02*
X1015Y212D01*
X0Y211D02*
X7Y211D01*
X38Y211D02*
X45Y211D01*
X90Y211D02*
X93Y211D01*
X112Y211D02*
X115Y211D01*
X128Y211D02*
X132Y211D01*
X174Y211D02*
X178Y211D01*
X205Y211D02*
X208Y211D01*
X216Y211D02*
X220Y211D01*
X232Y211D02*
X236Y211D01*
X274Y211D02*
X281Y211D01*
X738Y211D02*
X745Y211D01*
X797Y211D02*
X803Y211D01*
X814Y211D02*
X821Y211D01*
X847Y211D02*
X853Y211D01*
X904Y211D02*
X910Y211D01*
X923Y211D02*
X930Y211D01*
X974Y211D02*
X981Y211D01*
X1008Y211D02*
X1015Y211D01*
X0Y210D02*
X7Y210D01*
X38Y210D02*
X45Y210D01*
X90Y210D02*
X93Y210D01*
X112Y210D02*
X115Y210D01*
X127Y210D02*
X131Y210D01*
X174Y210D02*
X178Y210D01*
X204Y210D02*
X208Y210D01*
X216Y210D02*
X220Y210D01*
X232Y210D02*
X236Y210D01*
X274Y210D02*
X281Y210D01*
X738Y210D02*
X745Y210D01*
X797Y210D02*
X803Y210D01*
X814Y210D02*
X821Y210D01*
X847Y210D02*
X853Y210D01*
X904Y210D02*
X910Y210D01*
X923Y210D02*
X929Y210D01*
X974Y210D02*
X981Y210D01*
X1008Y210D02*
X1015Y210D01*
X0Y209D02*
X7Y209D01*
X38Y209D02*
X45Y209D01*
X90Y209D02*
X93Y209D01*
X112Y209D02*
X131Y209D01*
X173Y209D02*
X177Y209D01*
X204Y209D02*
X207Y209D01*
X217Y209D02*
X221Y209D01*
X232Y209D02*
X236Y209D01*
X274Y209D02*
X281Y209D01*
X738Y209D02*
X745Y209D01*
X797Y209D02*
X803Y209D01*
X815Y209D02*
X822Y209D01*
X847Y209D02*
X853Y209D01*
X904Y209D02*
X910Y209D01*
X922Y209D02*
X929Y209D01*
X974Y209D02*
X981Y209D01*
X1008Y209D02*
X1015Y209D01*
X0Y208D02*
X7Y208D01*
X38Y208D02*
X45Y208D01*
X90Y208D02*
X93Y208D01*
X112Y208D02*
X130Y208D01*
X173Y208D02*
X177Y208D01*
X203Y208D02*
X207Y208D01*
X217Y208D02*
X221Y208D01*
X232Y208D02*
X236Y208D01*
X274Y208D02*
X281Y208D01*
X738Y208D02*
X745Y208D01*
X797Y208D02*
X803Y208D01*
X815Y208D02*
X823Y208D01*
X847Y208D02*
X853Y208D01*
X904Y208D02*
X910Y208D01*
X922Y208D02*
X929Y208D01*
X974Y208D02*
X981Y208D01*
X1008Y208D02*
X1015Y208D01*
X0Y207D02*
X7Y207D01*
X38Y207D02*
X45Y207D01*
X90Y207D02*
X93Y207D01*
X112Y207D02*
X129Y207D01*
X173Y207D02*
X176Y207D01*
X203Y207D02*
X206Y207D01*
X218Y207D02*
X221Y207D01*
X232Y207D02*
X236Y207D01*
X274Y207D02*
X281Y207D01*
X738Y207D02*
X745Y207D01*
X797Y207D02*
X803Y207D01*
X816Y207D02*
X823Y207D01*
X847Y207D02*
X853Y207D01*
X904Y207D02*
X910Y207D01*
X921Y207D02*
X928Y207D01*
X974Y207D02*
X981Y207D01*
X1008Y207D02*
X1015Y207D01*
X0Y206D02*
X7Y206D01*
X38Y206D02*
X45Y206D01*
X90Y206D02*
X93Y206D01*
X112Y206D02*
X128Y206D01*
X172Y206D02*
X176Y206D01*
X202Y206D02*
X206Y206D01*
X218Y206D02*
X222Y206D01*
X232Y206D02*
X236Y206D01*
X274Y206D02*
X281Y206D01*
X738Y206D02*
X745Y206D01*
X797Y206D02*
X803Y206D01*
X817Y206D02*
X824Y206D01*
X847Y206D02*
X853Y206D01*
X904Y206D02*
X910Y206D01*
X921Y206D02*
X928Y206D01*
X974Y206D02*
X980Y206D01*
X1008Y206D02*
X1015Y206D01*
X0Y205D02*
X7Y205D01*
X39Y205D02*
X45Y205D01*
X90Y205D02*
X93Y205D01*
X112Y205D02*
X115Y205D01*
X119Y205D02*
X123Y205D01*
X172Y205D02*
X175Y205D01*
X202Y205D02*
X206Y205D01*
X219Y205D02*
X222Y205D01*
X232Y205D02*
X236Y205D01*
X274Y205D02*
X281Y205D01*
X738Y205D02*
X745Y205D01*
X797Y205D02*
X803Y205D01*
X817Y205D02*
X824Y205D01*
X847Y205D02*
X853Y205D01*
X904Y205D02*
X910Y205D01*
X920Y205D02*
X927Y205D01*
X974Y205D02*
X980Y205D01*
X1008Y205D02*
X1015Y205D01*
X0Y204D02*
X7Y204D01*
X39Y204D02*
X45Y204D01*
X90Y204D02*
X93Y204D01*
X112Y204D02*
X115Y204D01*
X120Y204D02*
X124Y204D01*
X172Y204D02*
X175Y204D01*
X202Y204D02*
X205Y204D01*
X219Y204D02*
X222Y204D01*
X232Y204D02*
X236Y204D01*
X274Y204D02*
X281Y204D01*
X738Y204D02*
X745Y204D01*
X797Y204D02*
X803Y204D01*
X818Y204D02*
X825Y204D01*
X847Y204D02*
X853Y204D01*
X904Y204D02*
X910Y204D01*
X920Y204D02*
X927Y204D01*
X974Y204D02*
X980Y204D01*
X1008Y204D02*
X1015Y204D01*
X0Y203D02*
X7Y203D01*
X39Y203D02*
X46Y203D01*
X90Y203D02*
X93Y203D01*
X112Y203D02*
X115Y203D01*
X120Y203D02*
X124Y203D01*
X172Y203D02*
X175Y203D01*
X202Y203D02*
X206Y203D01*
X219Y203D02*
X222Y203D01*
X232Y203D02*
X236Y203D01*
X274Y203D02*
X281Y203D01*
X738Y203D02*
X745Y203D01*
X797Y203D02*
X803Y203D01*
X818Y203D02*
X825Y203D01*
X847Y203D02*
X853Y203D01*
X904Y203D02*
X910Y203D01*
X919Y203D02*
X926Y203D01*
X973Y203D02*
X980Y203D01*
X1008Y203D02*
X1015Y203D01*
X0Y202D02*
X7Y202D01*
X39Y202D02*
X46Y202D01*
X90Y202D02*
X93Y202D01*
X112Y202D02*
X115Y202D01*
X121Y202D02*
X125Y202D01*
X172Y202D02*
X176Y202D01*
X202Y202D02*
X206Y202D01*
X218Y202D02*
X222Y202D01*
X232Y202D02*
X236Y202D01*
X274Y202D02*
X281Y202D01*
X738Y202D02*
X745Y202D01*
X797Y202D02*
X803Y202D01*
X819Y202D02*
X826Y202D01*
X847Y202D02*
X853Y202D01*
X904Y202D02*
X910Y202D01*
X919Y202D02*
X926Y202D01*
X973Y202D02*
X980Y202D01*
X1008Y202D02*
X1015Y202D01*
X0Y201D02*
X7Y201D01*
X39Y201D02*
X46Y201D01*
X90Y201D02*
X93Y201D01*
X112Y201D02*
X115Y201D01*
X122Y201D02*
X126Y201D01*
X173Y201D02*
X176Y201D01*
X203Y201D02*
X206Y201D01*
X218Y201D02*
X221Y201D01*
X232Y201D02*
X236Y201D01*
X274Y201D02*
X281Y201D01*
X738Y201D02*
X745Y201D01*
X797Y201D02*
X803Y201D01*
X819Y201D02*
X827Y201D01*
X847Y201D02*
X853Y201D01*
X904Y201D02*
X910Y201D01*
X918Y201D02*
X925Y201D01*
X973Y201D02*
X980Y201D01*
X1008Y201D02*
X1015Y201D01*
X0Y200D02*
X7Y200D01*
X39Y200D02*
X46Y200D01*
X90Y200D02*
X93Y200D01*
X112Y200D02*
X115Y200D01*
X122Y200D02*
X126Y200D01*
X173Y200D02*
X177Y200D01*
X203Y200D02*
X207Y200D01*
X217Y200D02*
X221Y200D01*
X232Y200D02*
X236Y200D01*
X274Y200D02*
X281Y200D01*
X739Y200D02*
X746Y200D01*
X797Y200D02*
X803Y200D01*
X820Y200D02*
X822Y200D01*
X904Y200D02*
X910Y200D01*
X918Y200D02*
X925Y200D01*
X973Y200D02*
X980Y200D01*
X1008Y200D02*
X1015Y200D01*
X0Y199D02*
X7Y199D01*
X39Y199D02*
X46Y199D01*
X90Y199D02*
X93Y199D01*
X112Y199D02*
X115Y199D01*
X123Y199D02*
X127Y199D01*
X174Y199D02*
X177Y199D01*
X204Y199D02*
X207Y199D01*
X217Y199D02*
X221Y199D01*
X232Y199D02*
X236Y199D01*
X274Y199D02*
X280Y199D01*
X739Y199D02*
X746Y199D01*
X797Y199D02*
X803Y199D01*
X821Y199D02*
X822Y199D01*
X904Y199D02*
X910Y199D01*
X917Y199D02*
X924Y199D01*
X973Y199D02*
X980Y199D01*
X1008Y199D02*
X1015Y199D01*
X0Y198D02*
X7Y198D01*
X39Y198D02*
X46Y198D01*
X90Y198D02*
X93Y198D01*
X112Y198D02*
X115Y198D01*
X123Y198D02*
X127Y198D01*
X174Y198D02*
X178Y198D01*
X204Y198D02*
X208Y198D01*
X216Y198D02*
X220Y198D01*
X232Y198D02*
X236Y198D01*
X274Y198D02*
X280Y198D01*
X739Y198D02*
X746Y198D01*
X797Y198D02*
X803Y198D01*
X821Y198D02*
X822Y198D01*
X904Y198D02*
X910Y198D01*
X917Y198D02*
X924Y198D01*
X973Y198D02*
X980Y198D01*
X1008Y198D02*
X1015Y198D01*
X0Y197D02*
X7Y197D01*
X39Y197D02*
X46Y197D01*
X90Y197D02*
X93Y197D01*
X112Y197D02*
X115Y197D01*
X124Y197D02*
X128Y197D01*
X175Y197D02*
X178Y197D01*
X205Y197D02*
X208Y197D01*
X216Y197D02*
X220Y197D01*
X232Y197D02*
X236Y197D01*
X273Y197D02*
X280Y197D01*
X739Y197D02*
X746Y197D01*
X797Y197D02*
X803Y197D01*
X822Y197D02*
X822Y197D01*
X904Y197D02*
X910Y197D01*
X915Y197D02*
X923Y197D01*
X973Y197D02*
X980Y197D01*
X1008Y197D02*
X1015Y197D01*
X0Y196D02*
X7Y196D01*
X39Y196D02*
X46Y196D01*
X90Y196D02*
X93Y196D01*
X112Y196D02*
X115Y196D01*
X125Y196D02*
X128Y196D01*
X175Y196D02*
X179Y196D01*
X205Y196D02*
X209Y196D01*
X215Y196D02*
X219Y196D01*
X232Y196D02*
X236Y196D01*
X273Y196D02*
X280Y196D01*
X739Y196D02*
X746Y196D01*
X797Y196D02*
X803Y196D01*
X822Y196D02*
X822Y196D01*
X899Y196D02*
X923Y196D01*
X973Y196D02*
X979Y196D01*
X1008Y196D02*
X1015Y196D01*
X0Y195D02*
X7Y195D01*
X39Y195D02*
X46Y195D01*
X90Y195D02*
X93Y195D01*
X112Y195D02*
X115Y195D01*
X125Y195D02*
X129Y195D01*
X177Y195D02*
X179Y195D01*
X206Y195D02*
X209Y195D01*
X215Y195D02*
X219Y195D01*
X232Y195D02*
X236Y195D01*
X273Y195D02*
X280Y195D01*
X739Y195D02*
X746Y195D01*
X797Y195D02*
X803Y195D01*
X898Y195D02*
X922Y195D01*
X972Y195D02*
X979Y195D01*
X1008Y195D02*
X1015Y195D01*
X0Y194D02*
X7Y194D01*
X40Y194D02*
X47Y194D01*
X90Y194D02*
X93Y194D01*
X112Y194D02*
X115Y194D01*
X126Y194D02*
X130Y194D01*
X179Y194D02*
X180Y194D01*
X206Y194D02*
X210Y194D01*
X214Y194D02*
X218Y194D01*
X232Y194D02*
X236Y194D01*
X273Y194D02*
X280Y194D01*
X739Y194D02*
X746Y194D01*
X797Y194D02*
X803Y194D01*
X898Y194D02*
X921Y194D01*
X972Y194D02*
X979Y194D01*
X1008Y194D02*
X1015Y194D01*
X0Y193D02*
X7Y193D01*
X40Y193D02*
X47Y193D01*
X90Y193D02*
X93Y193D01*
X112Y193D02*
X115Y193D01*
X126Y193D02*
X130Y193D01*
X180Y193D02*
X180Y193D01*
X207Y193D02*
X210Y193D01*
X214Y193D02*
X218Y193D01*
X232Y193D02*
X236Y193D01*
X273Y193D02*
X280Y193D01*
X740Y193D02*
X747Y193D01*
X797Y193D02*
X803Y193D01*
X898Y193D02*
X921Y193D01*
X972Y193D02*
X979Y193D01*
X1008Y193D02*
X1015Y193D01*
X0Y192D02*
X7Y192D01*
X40Y192D02*
X47Y192D01*
X84Y192D02*
X100Y192D01*
X112Y192D02*
X115Y192D01*
X127Y192D02*
X131Y192D01*
X182Y192D02*
X190Y192D01*
X207Y192D02*
X217Y192D01*
X232Y192D02*
X250Y192D01*
X273Y192D02*
X279Y192D01*
X740Y192D02*
X747Y192D01*
X797Y192D02*
X803Y192D01*
X898Y192D02*
X920Y192D01*
X972Y192D02*
X979Y192D01*
X1008Y192D02*
X1015Y192D01*
X0Y191D02*
X7Y191D01*
X40Y191D02*
X47Y191D01*
X82Y191D02*
X101Y191D01*
X112Y191D02*
X115Y191D01*
X127Y191D02*
X131Y191D01*
X183Y191D02*
X192Y191D01*
X208Y191D02*
X217Y191D01*
X232Y191D02*
X252Y191D01*
X272Y191D02*
X279Y191D01*
X740Y191D02*
X747Y191D01*
X798Y191D02*
X802Y191D01*
X898Y191D02*
X918Y191D01*
X972Y191D02*
X979Y191D01*
X1008Y191D02*
X1015Y191D01*
X0Y190D02*
X7Y190D01*
X40Y190D02*
X47Y190D01*
X82Y190D02*
X102Y190D01*
X112Y190D02*
X115Y190D01*
X128Y190D02*
X132Y190D01*
X184Y190D02*
X192Y190D01*
X208Y190D02*
X216Y190D01*
X232Y190D02*
X252Y190D01*
X272Y190D02*
X279Y190D01*
X740Y190D02*
X747Y190D01*
X799Y190D02*
X801Y190D01*
X899Y190D02*
X916Y190D01*
X972Y190D02*
X978Y190D01*
X1008Y190D02*
X1015Y190D01*
X0Y189D02*
X7Y189D01*
X40Y189D02*
X48Y189D01*
X82Y189D02*
X101Y189D01*
X112Y189D02*
X115Y189D01*
X129Y189D02*
X131Y189D01*
X186Y189D02*
X192Y189D01*
X209Y189D02*
X215Y189D01*
X232Y189D02*
X252Y189D01*
X272Y189D02*
X279Y189D01*
X740Y189D02*
X747Y189D01*
X971Y189D02*
X978Y189D01*
X1008Y189D02*
X1015Y189D01*
X0Y188D02*
X7Y188D01*
X41Y188D02*
X48Y188D01*
X83Y188D02*
X100Y188D01*
X113Y188D02*
X114Y188D01*
X130Y188D02*
X130Y188D01*
X187Y188D02*
X190Y188D01*
X211Y188D02*
X213Y188D01*
X233Y188D02*
X251Y188D01*
X272Y188D02*
X279Y188D01*
X741Y188D02*
X748Y188D01*
X971Y188D02*
X978Y188D01*
X1008Y188D02*
X1015Y188D01*
X0Y187D02*
X7Y187D01*
X41Y187D02*
X48Y187D01*
X272Y187D02*
X279Y187D01*
X741Y187D02*
X748Y187D01*
X971Y187D02*
X978Y187D01*
X1008Y187D02*
X1015Y187D01*
X0Y186D02*
X7Y186D01*
X41Y186D02*
X48Y186D01*
X271Y186D02*
X278Y186D01*
X741Y186D02*
X748Y186D01*
X971Y186D02*
X978Y186D01*
X1008Y186D02*
X1015Y186D01*
X0Y185D02*
X7Y185D01*
X41Y185D02*
X48Y185D01*
X271Y185D02*
X278Y185D01*
X741Y185D02*
X748Y185D01*
X970Y185D02*
X977Y185D01*
X1008Y185D02*
X1015Y185D01*
X0Y184D02*
X7Y184D01*
X42Y184D02*
X49Y184D01*
X271Y184D02*
X278Y184D01*
X741Y184D02*
X749Y184D01*
X970Y184D02*
X977Y184D01*
X1008Y184D02*
X1015Y184D01*
X0Y183D02*
X7Y183D01*
X42Y183D02*
X49Y183D01*
X271Y183D02*
X278Y183D01*
X742Y183D02*
X749Y183D01*
X970Y183D02*
X977Y183D01*
X1008Y183D02*
X1015Y183D01*
X0Y182D02*
X7Y182D01*
X42Y182D02*
X49Y182D01*
X270Y182D02*
X277Y182D01*
X742Y182D02*
X749Y182D01*
X970Y182D02*
X977Y182D01*
X1008Y182D02*
X1015Y182D01*
X0Y181D02*
X7Y181D01*
X42Y181D02*
X49Y181D01*
X270Y181D02*
X277Y181D01*
X742Y181D02*
X749Y181D01*
X969Y181D02*
X976Y181D01*
X1008Y181D02*
X1015Y181D01*
X0Y180D02*
X7Y180D01*
X43Y180D02*
X50Y180D01*
X270Y180D02*
X277Y180D01*
X743Y180D02*
X750Y180D01*
X969Y180D02*
X976Y180D01*
X1008Y180D02*
X1015Y180D01*
X0Y179D02*
X7Y179D01*
X43Y179D02*
X50Y179D01*
X270Y179D02*
X277Y179D01*
X743Y179D02*
X750Y179D01*
X969Y179D02*
X976Y179D01*
X1008Y179D02*
X1015Y179D01*
X0Y178D02*
X7Y178D01*
X43Y178D02*
X50Y178D01*
X269Y178D02*
X276Y178D01*
X743Y178D02*
X750Y178D01*
X968Y178D02*
X975Y178D01*
X1008Y178D02*
X1015Y178D01*
X0Y177D02*
X7Y177D01*
X43Y177D02*
X51Y177D01*
X269Y177D02*
X276Y177D01*
X743Y177D02*
X751Y177D01*
X968Y177D02*
X975Y177D01*
X1008Y177D02*
X1015Y177D01*
X0Y176D02*
X7Y176D01*
X44Y176D02*
X51Y176D01*
X269Y176D02*
X276Y176D01*
X744Y176D02*
X751Y176D01*
X968Y176D02*
X975Y176D01*
X1008Y176D02*
X1015Y176D01*
X0Y175D02*
X7Y175D01*
X44Y175D02*
X51Y175D01*
X268Y175D02*
X275Y175D01*
X744Y175D02*
X751Y175D01*
X967Y175D02*
X974Y175D01*
X1008Y175D02*
X1015Y175D01*
X0Y174D02*
X7Y174D01*
X44Y174D02*
X52Y174D01*
X268Y174D02*
X275Y174D01*
X744Y174D02*
X752Y174D01*
X967Y174D02*
X974Y174D01*
X1008Y174D02*
X1015Y174D01*
X0Y173D02*
X7Y173D01*
X45Y173D02*
X52Y173D01*
X268Y173D02*
X275Y173D01*
X745Y173D02*
X752Y173D01*
X966Y173D02*
X974Y173D01*
X1008Y173D02*
X1015Y173D01*
X0Y172D02*
X7Y172D01*
X45Y172D02*
X52Y172D01*
X267Y172D02*
X274Y172D01*
X745Y172D02*
X752Y172D01*
X966Y172D02*
X973Y172D01*
X1008Y172D02*
X1015Y172D01*
X0Y171D02*
X7Y171D01*
X45Y171D02*
X53Y171D01*
X267Y171D02*
X274Y171D01*
X746Y171D02*
X753Y171D01*
X966Y171D02*
X973Y171D01*
X1008Y171D02*
X1015Y171D01*
X0Y170D02*
X7Y170D01*
X46Y170D02*
X53Y170D01*
X266Y170D02*
X274Y170D01*
X746Y170D02*
X753Y170D01*
X965Y170D02*
X973Y170D01*
X1008Y170D02*
X1015Y170D01*
X0Y169D02*
X7Y169D01*
X46Y169D02*
X53Y169D01*
X266Y169D02*
X273Y169D01*
X746Y169D02*
X754Y169D01*
X965Y169D02*
X972Y169D01*
X1008Y169D02*
X1015Y169D01*
X0Y168D02*
X7Y168D01*
X47Y168D02*
X54Y168D01*
X266Y168D02*
X273Y168D01*
X747Y168D02*
X754Y168D01*
X964Y168D02*
X972Y168D01*
X1008Y168D02*
X1015Y168D01*
X0Y167D02*
X7Y167D01*
X47Y167D02*
X54Y167D01*
X265Y167D02*
X273Y167D01*
X747Y167D02*
X755Y167D01*
X964Y167D02*
X971Y167D01*
X1008Y167D02*
X1015Y167D01*
X0Y166D02*
X7Y166D01*
X47Y166D02*
X55Y166D01*
X265Y166D02*
X272Y166D01*
X748Y166D02*
X755Y166D01*
X964Y166D02*
X971Y166D01*
X1008Y166D02*
X1015Y166D01*
X0Y165D02*
X7Y165D01*
X48Y165D02*
X55Y165D01*
X264Y165D02*
X272Y165D01*
X748Y165D02*
X755Y165D01*
X963Y165D02*
X971Y165D01*
X1008Y165D02*
X1015Y165D01*
X0Y164D02*
X7Y164D01*
X48Y164D02*
X56Y164D01*
X264Y164D02*
X271Y164D01*
X748Y164D02*
X756Y164D01*
X963Y164D02*
X970Y164D01*
X1008Y164D02*
X1015Y164D01*
X0Y163D02*
X7Y163D01*
X49Y163D02*
X56Y163D01*
X263Y163D02*
X271Y163D01*
X749Y163D02*
X756Y163D01*
X962Y163D02*
X970Y163D01*
X1008Y163D02*
X1015Y163D01*
X0Y162D02*
X7Y162D01*
X49Y162D02*
X57Y162D01*
X263Y162D02*
X270Y162D01*
X749Y162D02*
X757Y162D01*
X962Y162D02*
X969Y162D01*
X1008Y162D02*
X1015Y162D01*
X0Y161D02*
X7Y161D01*
X50Y161D02*
X57Y161D01*
X262Y161D02*
X270Y161D01*
X750Y161D02*
X757Y161D01*
X961Y161D02*
X969Y161D01*
X1008Y161D02*
X1015Y161D01*
X0Y160D02*
X7Y160D01*
X50Y160D02*
X58Y160D01*
X262Y160D02*
X270Y160D01*
X750Y160D02*
X758Y160D01*
X961Y160D02*
X968Y160D01*
X1008Y160D02*
X1015Y160D01*
X0Y159D02*
X7Y159D01*
X50Y159D02*
X58Y159D01*
X261Y159D02*
X269Y159D01*
X751Y159D02*
X758Y159D01*
X960Y159D02*
X968Y159D01*
X1008Y159D02*
X1015Y159D01*
X0Y158D02*
X7Y158D01*
X51Y158D02*
X59Y158D01*
X261Y158D02*
X269Y158D01*
X751Y158D02*
X759Y158D01*
X959Y158D02*
X967Y158D01*
X1008Y158D02*
X1015Y158D01*
X0Y157D02*
X7Y157D01*
X51Y157D02*
X59Y157D01*
X260Y157D02*
X268Y157D01*
X752Y157D02*
X760Y157D01*
X959Y157D02*
X967Y157D01*
X1008Y157D02*
X1015Y157D01*
X0Y156D02*
X7Y156D01*
X52Y156D02*
X60Y156D01*
X260Y156D02*
X268Y156D01*
X752Y156D02*
X760Y156D01*
X958Y156D02*
X966Y156D01*
X1008Y156D02*
X1015Y156D01*
X0Y155D02*
X7Y155D01*
X52Y155D02*
X60Y155D01*
X259Y155D02*
X267Y155D01*
X753Y155D02*
X761Y155D01*
X958Y155D02*
X966Y155D01*
X1008Y155D02*
X1015Y155D01*
X0Y154D02*
X7Y154D01*
X53Y154D02*
X61Y154D01*
X258Y154D02*
X267Y154D01*
X753Y154D02*
X761Y154D01*
X957Y154D02*
X965Y154D01*
X1008Y154D02*
X1015Y154D01*
X0Y153D02*
X7Y153D01*
X54Y153D02*
X61Y153D01*
X258Y153D02*
X266Y153D01*
X754Y153D02*
X762Y153D01*
X956Y153D02*
X965Y153D01*
X1008Y153D02*
X1015Y153D01*
X0Y152D02*
X7Y152D01*
X54Y152D02*
X62Y152D01*
X257Y152D02*
X265Y152D01*
X755Y152D02*
X763Y152D01*
X956Y152D02*
X964Y152D01*
X1008Y152D02*
X1015Y152D01*
X0Y151D02*
X7Y151D01*
X55Y151D02*
X63Y151D01*
X257Y151D02*
X265Y151D01*
X755Y151D02*
X763Y151D01*
X955Y151D02*
X963Y151D01*
X1008Y151D02*
X1015Y151D01*
X0Y150D02*
X7Y150D01*
X55Y150D02*
X63Y150D01*
X256Y150D02*
X264Y150D01*
X756Y150D02*
X764Y150D01*
X955Y150D02*
X963Y150D01*
X1008Y150D02*
X1015Y150D01*
X0Y149D02*
X7Y149D01*
X56Y149D02*
X64Y149D01*
X255Y149D02*
X264Y149D01*
X756Y149D02*
X765Y149D01*
X954Y149D02*
X962Y149D01*
X1008Y149D02*
X1015Y149D01*
X0Y148D02*
X7Y148D01*
X56Y148D02*
X65Y148D01*
X255Y148D02*
X263Y148D01*
X757Y148D02*
X765Y148D01*
X953Y148D02*
X962Y148D01*
X1008Y148D02*
X1015Y148D01*
X0Y147D02*
X7Y147D01*
X57Y147D02*
X65Y147D01*
X254Y147D02*
X262Y147D01*
X758Y147D02*
X766Y147D01*
X952Y147D02*
X961Y147D01*
X1008Y147D02*
X1015Y147D01*
X0Y146D02*
X7Y146D01*
X58Y146D02*
X66Y146D01*
X253Y146D02*
X262Y146D01*
X758Y146D02*
X767Y146D01*
X952Y146D02*
X960Y146D01*
X1008Y146D02*
X1015Y146D01*
X0Y145D02*
X7Y145D01*
X58Y145D02*
X67Y145D01*
X253Y145D02*
X261Y145D01*
X759Y145D02*
X767Y145D01*
X951Y145D02*
X960Y145D01*
X1008Y145D02*
X1015Y145D01*
X0Y144D02*
X7Y144D01*
X59Y144D02*
X68Y144D01*
X252Y144D02*
X260Y144D01*
X760Y144D02*
X768Y144D01*
X950Y144D02*
X959Y144D01*
X1008Y144D02*
X1015Y144D01*
X0Y143D02*
X7Y143D01*
X60Y143D02*
X68Y143D01*
X251Y143D02*
X260Y143D01*
X760Y143D02*
X769Y143D01*
X949Y143D02*
X958Y143D01*
X1008Y143D02*
X1015Y143D01*
X0Y142D02*
X7Y142D01*
X60Y142D02*
X69Y142D01*
X250Y142D02*
X259Y142D01*
X761Y142D02*
X770Y142D01*
X949Y142D02*
X958Y142D01*
X1008Y142D02*
X1015Y142D01*
X0Y141D02*
X7Y141D01*
X61Y141D02*
X70Y141D01*
X249Y141D02*
X258Y141D01*
X762Y141D02*
X771Y141D01*
X948Y141D02*
X957Y141D01*
X1008Y141D02*
X1015Y141D01*
X0Y140D02*
X7Y140D01*
X62Y140D02*
X71Y140D01*
X249Y140D02*
X258Y140D01*
X763Y140D02*
X771Y140D01*
X947Y140D02*
X956Y140D01*
X1008Y140D02*
X1015Y140D01*
X0Y139D02*
X7Y139D01*
X63Y139D02*
X71Y139D01*
X248Y139D02*
X257Y139D01*
X763Y139D02*
X772Y139D01*
X946Y139D02*
X955Y139D01*
X1008Y139D02*
X1015Y139D01*
X0Y138D02*
X7Y138D01*
X63Y138D02*
X72Y138D01*
X247Y138D02*
X256Y138D01*
X764Y138D02*
X773Y138D01*
X945Y138D02*
X955Y138D01*
X1008Y138D02*
X1015Y138D01*
X0Y137D02*
X7Y137D01*
X64Y137D02*
X73Y137D01*
X246Y137D02*
X255Y137D01*
X765Y137D02*
X774Y137D01*
X944Y137D02*
X954Y137D01*
X1008Y137D02*
X1015Y137D01*
X0Y136D02*
X7Y136D01*
X65Y136D02*
X74Y136D01*
X245Y136D02*
X255Y136D01*
X766Y136D02*
X775Y136D01*
X944Y136D02*
X953Y136D01*
X1008Y136D02*
X1015Y136D01*
X0Y135D02*
X7Y135D01*
X66Y135D02*
X75Y135D01*
X244Y135D02*
X254Y135D01*
X767Y135D02*
X776Y135D01*
X943Y135D02*
X952Y135D01*
X1008Y135D02*
X1015Y135D01*
X0Y134D02*
X7Y134D01*
X67Y134D02*
X76Y134D01*
X243Y134D02*
X253Y134D01*
X767Y134D02*
X777Y134D01*
X942Y134D02*
X951Y134D01*
X1008Y134D02*
X1015Y134D01*
X0Y133D02*
X7Y133D01*
X67Y133D02*
X77Y133D01*
X243Y133D02*
X252Y133D01*
X768Y133D02*
X778Y133D01*
X941Y133D02*
X950Y133D01*
X1008Y133D02*
X1015Y133D01*
X0Y132D02*
X7Y132D01*
X68Y132D02*
X78Y132D01*
X242Y132D02*
X251Y132D01*
X769Y132D02*
X779Y132D01*
X940Y132D02*
X949Y132D01*
X1008Y132D02*
X1015Y132D01*
X0Y131D02*
X7Y131D01*
X69Y131D02*
X79Y131D01*
X241Y131D02*
X250Y131D01*
X770Y131D02*
X780Y131D01*
X939Y131D02*
X949Y131D01*
X1008Y131D02*
X1015Y131D01*
X0Y130D02*
X7Y130D01*
X70Y130D02*
X80Y130D01*
X240Y130D02*
X249Y130D01*
X771Y130D02*
X781Y130D01*
X938Y130D02*
X948Y130D01*
X1008Y130D02*
X1015Y130D01*
X0Y129D02*
X7Y129D01*
X71Y129D02*
X81Y129D01*
X238Y129D02*
X249Y129D01*
X772Y129D02*
X782Y129D01*
X936Y129D02*
X947Y129D01*
X1008Y129D02*
X1015Y129D01*
X0Y128D02*
X7Y128D01*
X72Y128D02*
X82Y128D01*
X237Y128D02*
X248Y128D01*
X773Y128D02*
X783Y128D01*
X935Y128D02*
X946Y128D01*
X1008Y128D02*
X1015Y128D01*
X0Y127D02*
X7Y127D01*
X73Y127D02*
X83Y127D01*
X236Y127D02*
X247Y127D01*
X774Y127D02*
X784Y127D01*
X934Y127D02*
X945Y127D01*
X1008Y127D02*
X1015Y127D01*
X0Y126D02*
X7Y126D01*
X74Y126D02*
X84Y126D01*
X235Y126D02*
X246Y126D01*
X775Y126D02*
X786Y126D01*
X933Y126D02*
X944Y126D01*
X1008Y126D02*
X1015Y126D01*
X0Y125D02*
X7Y125D01*
X75Y125D02*
X85Y125D01*
X234Y125D02*
X245Y125D01*
X776Y125D02*
X787Y125D01*
X932Y125D02*
X943Y125D01*
X1008Y125D02*
X1015Y125D01*
X0Y124D02*
X7Y124D01*
X76Y124D02*
X87Y124D01*
X233Y124D02*
X244Y124D01*
X777Y124D02*
X788Y124D01*
X931Y124D02*
X942Y124D01*
X1008Y124D02*
X1015Y124D01*
X0Y123D02*
X7Y123D01*
X77Y123D02*
X88Y123D01*
X232Y123D02*
X243Y123D01*
X778Y123D02*
X789Y123D01*
X929Y123D02*
X940Y123D01*
X1008Y123D02*
X1015Y123D01*
X0Y122D02*
X7Y122D01*
X78Y122D02*
X89Y122D01*
X230Y122D02*
X241Y122D01*
X779Y122D02*
X791Y122D01*
X928Y122D02*
X939Y122D01*
X1008Y122D02*
X1015Y122D01*
X0Y121D02*
X7Y121D01*
X79Y121D02*
X240Y121D01*
X780Y121D02*
X792Y121D01*
X927Y121D02*
X938Y121D01*
X1008Y121D02*
X1015Y121D01*
X0Y120D02*
X7Y120D01*
X80Y120D02*
X239Y120D01*
X781Y120D02*
X793Y120D01*
X925Y120D02*
X937Y120D01*
X1008Y120D02*
X1015Y120D01*
X0Y119D02*
X7Y119D01*
X81Y119D02*
X238Y119D01*
X783Y119D02*
X795Y119D01*
X924Y119D02*
X936Y119D01*
X1008Y119D02*
X1015Y119D01*
X0Y118D02*
X7Y118D01*
X83Y118D02*
X237Y118D01*
X784Y118D02*
X796Y118D01*
X922Y118D02*
X935Y118D01*
X1008Y118D02*
X1015Y118D01*
X0Y117D02*
X7Y117D01*
X84Y117D02*
X236Y117D01*
X785Y117D02*
X798Y117D01*
X921Y117D02*
X933Y117D01*
X1008Y117D02*
X1015Y117D01*
X0Y116D02*
X7Y116D01*
X85Y116D02*
X234Y116D01*
X787Y116D02*
X800Y116D01*
X919Y116D02*
X932Y116D01*
X1008Y116D02*
X1015Y116D01*
X0Y115D02*
X7Y115D01*
X86Y115D02*
X233Y115D01*
X788Y115D02*
X801Y115D01*
X918Y115D02*
X931Y115D01*
X1008Y115D02*
X1015Y115D01*
X0Y114D02*
X7Y114D01*
X88Y114D02*
X232Y114D01*
X789Y114D02*
X803Y114D01*
X916Y114D02*
X929Y114D01*
X1008Y114D02*
X1015Y114D01*
X0Y113D02*
X7Y113D01*
X791Y113D02*
X805Y113D01*
X914Y113D02*
X928Y113D01*
X1008Y113D02*
X1015Y113D01*
X0Y112D02*
X7Y112D01*
X792Y112D02*
X807Y112D01*
X912Y112D02*
X926Y112D01*
X1008Y112D02*
X1015Y112D01*
X0Y111D02*
X7Y111D01*
X794Y111D02*
X809Y111D01*
X910Y111D02*
X925Y111D01*
X1008Y111D02*
X1015Y111D01*
X0Y110D02*
X7Y110D01*
X795Y110D02*
X811Y110D01*
X908Y110D02*
X923Y110D01*
X1008Y110D02*
X1015Y110D01*
X0Y109D02*
X7Y109D01*
X797Y109D02*
X813Y109D01*
X906Y109D02*
X922Y109D01*
X1008Y109D02*
X1015Y109D01*
X0Y108D02*
X7Y108D01*
X799Y108D02*
X815Y108D01*
X903Y108D02*
X920Y108D01*
X1008Y108D02*
X1015Y108D01*
X0Y107D02*
X7Y107D01*
X800Y107D02*
X818Y107D01*
X901Y107D02*
X918Y107D01*
X1008Y107D02*
X1015Y107D01*
X0Y106D02*
X7Y106D01*
X802Y106D02*
X820Y106D01*
X898Y106D02*
X916Y106D01*
X1008Y106D02*
X1015Y106D01*
X0Y105D02*
X7Y105D01*
X804Y105D02*
X823Y105D01*
X895Y105D02*
X914Y105D01*
X1008Y105D02*
X1015Y105D01*
X0Y104D02*
X7Y104D01*
X806Y104D02*
X826Y104D01*
X892Y104D02*
X912Y104D01*
X1008Y104D02*
X1015Y104D01*
X0Y103D02*
X7Y103D01*
X808Y103D02*
X830Y103D01*
X888Y103D02*
X910Y103D01*
X1008Y103D02*
X1015Y103D01*
X0Y102D02*
X7Y102D01*
X810Y102D02*
X834Y102D01*
X884Y102D02*
X908Y102D01*
X1008Y102D02*
X1015Y102D01*
X0Y101D02*
X7Y101D01*
X813Y101D02*
X839Y101D01*
X879Y101D02*
X906Y101D01*
X1008Y101D02*
X1015Y101D01*
X0Y100D02*
X7Y100D01*
X815Y100D02*
X847Y100D01*
X871Y100D02*
X903Y100D01*
X1008Y100D02*
X1015Y100D01*
X0Y99D02*
X7Y99D01*
X818Y99D02*
X901Y99D01*
X1008Y99D02*
X1015Y99D01*
X0Y98D02*
X7Y98D01*
X821Y98D02*
X898Y98D01*
X1008Y98D02*
X1015Y98D01*
X0Y97D02*
X7Y97D01*
X824Y97D02*
X895Y97D01*
X1008Y97D02*
X1015Y97D01*
X0Y96D02*
X7Y96D01*
X827Y96D02*
X891Y96D01*
X1008Y96D02*
X1015Y96D01*
X0Y95D02*
X7Y95D01*
X831Y95D02*
X888Y95D01*
X1008Y95D02*
X1015Y95D01*
X0Y94D02*
X7Y94D01*
X836Y94D02*
X883Y94D01*
X1008Y94D02*
X1015Y94D01*
X0Y93D02*
X7Y93D01*
X841Y93D02*
X877Y93D01*
X1008Y93D02*
X1015Y93D01*
X0Y92D02*
X7Y92D01*
X850Y92D02*
X869Y92D01*
X1008Y92D02*
X1015Y92D01*
X0Y91D02*
X7Y91D01*
X1008Y91D02*
X1015Y91D01*
X0Y90D02*
X7Y90D01*
X1008Y90D02*
X1015Y90D01*
X0Y89D02*
X7Y89D01*
X1008Y89D02*
X1015Y89D01*
X0Y88D02*
X7Y88D01*
X1008Y88D02*
X1015Y88D01*
X0Y87D02*
X7Y87D01*
X1008Y87D02*
X1015Y87D01*
X0Y86D02*
X7Y86D01*
X1008Y86D02*
X1015Y86D01*
X0Y85D02*
X7Y85D01*
X1008Y85D02*
X1015Y85D01*
X0Y84D02*
X7Y84D01*
X1008Y84D02*
X1015Y84D01*
X0Y83D02*
X7Y83D01*
X1008Y83D02*
X1015Y83D01*
X0Y82D02*
X7Y82D01*
X1008Y82D02*
X1015Y82D01*
X0Y81D02*
X7Y81D01*
X1008Y81D02*
X1015Y81D01*
X0Y80D02*
X7Y80D01*
X1008Y80D02*
X1015Y80D01*
X0Y79D02*
X7Y79D01*
X1008Y79D02*
X1015Y79D01*
X0Y78D02*
X7Y78D01*
X1008Y78D02*
X1015Y78D01*
X0Y77D02*
X7Y77D01*
X223Y77D02*
X233Y77D01*
X252Y77D02*
X257Y77D01*
X267Y77D02*
X272Y77D01*
X715Y77D02*
X732Y77D01*
X745Y77D02*
X762Y77D01*
X777Y77D02*
X792Y77D01*
X1008Y77D02*
X1015Y77D01*
X0Y76D02*
X7Y76D01*
X222Y76D02*
X233Y76D01*
X252Y76D02*
X257Y76D01*
X266Y76D02*
X272Y76D01*
X714Y76D02*
X733Y76D01*
X744Y76D02*
X763Y76D01*
X776Y76D02*
X793Y76D01*
X1008Y76D02*
X1015Y76D01*
X0Y75D02*
X7Y75D01*
X222Y75D02*
X233Y75D01*
X252Y75D02*
X258Y75D01*
X266Y75D02*
X272Y75D01*
X289Y75D02*
X298Y75D01*
X714Y75D02*
X733Y75D01*
X744Y75D02*
X764Y75D01*
X775Y75D02*
X794Y75D01*
X811Y75D02*
X821Y75D01*
X1008Y75D02*
X1015Y75D01*
X0Y74D02*
X7Y74D01*
X223Y74D02*
X233Y74D01*
X252Y74D02*
X259Y74D01*
X265Y74D02*
X272Y74D01*
X287Y74D02*
X300Y74D01*
X715Y74D02*
X734Y74D01*
X745Y74D02*
X764Y74D01*
X775Y74D02*
X794Y74D01*
X809Y74D02*
X823Y74D01*
X1008Y74D02*
X1015Y74D01*
X0Y73D02*
X7Y73D01*
X230Y73D02*
X233Y73D01*
X252Y73D02*
X259Y73D01*
X264Y73D02*
X272Y73D01*
X285Y73D02*
X302Y73D01*
X731Y73D02*
X734Y73D01*
X761Y73D02*
X764Y73D01*
X774Y73D02*
X778Y73D01*
X791Y73D02*
X794Y73D01*
X808Y73D02*
X824Y73D01*
X1008Y73D02*
X1015Y73D01*
X0Y72D02*
X7Y72D01*
X230Y72D02*
X233Y72D01*
X252Y72D02*
X260Y72D01*
X264Y72D02*
X272Y72D01*
X284Y72D02*
X289Y72D01*
X298Y72D02*
X303Y72D01*
X731Y72D02*
X734Y72D01*
X761Y72D02*
X764Y72D01*
X774Y72D02*
X778Y72D01*
X791Y72D02*
X794Y72D01*
X806Y72D02*
X811Y72D01*
X820Y72D02*
X825Y72D01*
X1008Y72D02*
X1015Y72D01*
X0Y71D02*
X7Y71D01*
X230Y71D02*
X233Y71D01*
X252Y71D02*
X261Y71D01*
X263Y71D02*
X272Y71D01*
X283Y71D02*
X287Y71D01*
X300Y71D02*
X304Y71D01*
X731Y71D02*
X734Y71D01*
X761Y71D02*
X764Y71D01*
X774Y71D02*
X778Y71D01*
X791Y71D02*
X794Y71D01*
X805Y71D02*
X810Y71D01*
X822Y71D02*
X826Y71D01*
X1008Y71D02*
X1015Y71D01*
X0Y70D02*
X7Y70D01*
X230Y70D02*
X233Y70D01*
X252Y70D02*
X255Y70D01*
X257Y70D02*
X266Y70D01*
X269Y70D02*
X272Y70D01*
X282Y70D02*
X286Y70D01*
X301Y70D02*
X305Y70D01*
X731Y70D02*
X734Y70D01*
X761Y70D02*
X764Y70D01*
X774Y70D02*
X778Y70D01*
X791Y70D02*
X794Y70D01*
X805Y70D02*
X809Y70D01*
X823Y70D02*
X827Y70D01*
X1008Y70D02*
X1015Y70D01*
X0Y69D02*
X7Y69D01*
X230Y69D02*
X233Y69D01*
X252Y69D02*
X255Y69D01*
X258Y69D02*
X266Y69D01*
X269Y69D02*
X272Y69D01*
X282Y69D02*
X285Y69D01*
X301Y69D02*
X305Y69D01*
X731Y69D02*
X734Y69D01*
X761Y69D02*
X764Y69D01*
X774Y69D02*
X778Y69D01*
X791Y69D02*
X794Y69D01*
X804Y69D02*
X808Y69D01*
X824Y69D02*
X828Y69D01*
X1008Y69D02*
X1015Y69D01*
X0Y68D02*
X7Y68D01*
X230Y68D02*
X233Y68D01*
X252Y68D02*
X255Y68D01*
X259Y68D02*
X265Y68D01*
X269Y68D02*
X272Y68D01*
X281Y68D02*
X285Y68D01*
X302Y68D02*
X306Y68D01*
X731Y68D02*
X734Y68D01*
X761Y68D02*
X764Y68D01*
X774Y68D02*
X778Y68D01*
X791Y68D02*
X794Y68D01*
X804Y68D02*
X807Y68D01*
X824Y68D02*
X828Y68D01*
X1008Y68D02*
X1015Y68D01*
X0Y67D02*
X7Y67D01*
X103Y67D02*
X169Y67D01*
X230Y67D02*
X233Y67D01*
X252Y67D02*
X255Y67D01*
X259Y67D02*
X264Y67D01*
X269Y67D02*
X272Y67D01*
X281Y67D02*
X284Y67D01*
X303Y67D02*
X306Y67D01*
X370Y67D02*
X417Y67D01*
X602Y67D02*
X668Y67D01*
X731Y67D02*
X734Y67D01*
X761Y67D02*
X764Y67D01*
X774Y67D02*
X778Y67D01*
X791Y67D02*
X794Y67D01*
X803Y67D02*
X807Y67D01*
X825Y67D02*
X829Y67D01*
X869Y67D02*
X917Y67D01*
X1008Y67D02*
X1015Y67D01*
X0Y66D02*
X7Y66D01*
X103Y66D02*
X169Y66D01*
X230Y66D02*
X233Y66D01*
X252Y66D02*
X255Y66D01*
X260Y66D02*
X264Y66D01*
X269Y66D02*
X272Y66D01*
X280Y66D02*
X284Y66D01*
X303Y66D02*
X306Y66D01*
X370Y66D02*
X417Y66D01*
X602Y66D02*
X668Y66D01*
X731Y66D02*
X734Y66D01*
X761Y66D02*
X764Y66D01*
X774Y66D02*
X778Y66D01*
X791Y66D02*
X794Y66D01*
X803Y66D02*
X806Y66D01*
X825Y66D02*
X829Y66D01*
X869Y66D02*
X916Y66D01*
X1008Y66D02*
X1015Y66D01*
X0Y65D02*
X7Y65D01*
X103Y65D02*
X169Y65D01*
X230Y65D02*
X233Y65D01*
X252Y65D02*
X255Y65D01*
X260Y65D02*
X263Y65D01*
X269Y65D02*
X272Y65D01*
X280Y65D02*
X284Y65D01*
X303Y65D02*
X307Y65D01*
X370Y65D02*
X417Y65D01*
X602Y65D02*
X668Y65D01*
X731Y65D02*
X734Y65D01*
X761Y65D02*
X764Y65D01*
X774Y65D02*
X778Y65D01*
X791Y65D02*
X794Y65D01*
X803Y65D02*
X806Y65D01*
X826Y65D02*
X829Y65D01*
X869Y65D02*
X916Y65D01*
X1008Y65D02*
X1015Y65D01*
X0Y64D02*
X7Y64D01*
X103Y64D02*
X169Y64D01*
X230Y64D02*
X233Y64D01*
X252Y64D02*
X255Y64D01*
X260Y64D02*
X263Y64D01*
X269Y64D02*
X272Y64D01*
X280Y64D02*
X284Y64D01*
X303Y64D02*
X307Y64D01*
X370Y64D02*
X417Y64D01*
X602Y64D02*
X668Y64D01*
X731Y64D02*
X734Y64D01*
X761Y64D02*
X764Y64D01*
X774Y64D02*
X778Y64D01*
X791Y64D02*
X794Y64D01*
X802Y64D02*
X806Y64D01*
X826Y64D02*
X829Y64D01*
X869Y64D02*
X916Y64D01*
X1008Y64D02*
X1015Y64D01*
X0Y63D02*
X7Y63D01*
X103Y63D02*
X169Y63D01*
X230Y63D02*
X233Y63D01*
X252Y63D02*
X255Y63D01*
X261Y63D02*
X262Y63D01*
X269Y63D02*
X272Y63D01*
X280Y63D02*
X284Y63D01*
X303Y63D02*
X307Y63D01*
X370Y63D02*
X417Y63D01*
X602Y63D02*
X668Y63D01*
X717Y63D02*
X734Y63D01*
X747Y63D02*
X764Y63D01*
X774Y63D02*
X778Y63D01*
X791Y63D02*
X794Y63D01*
X802Y63D02*
X806Y63D01*
X826Y63D02*
X829Y63D01*
X869Y63D02*
X916Y63D01*
X1008Y63D02*
X1015Y63D01*
X0Y62D02*
X7Y62D01*
X103Y62D02*
X169Y62D01*
X230Y62D02*
X233Y62D01*
X252Y62D02*
X255Y62D01*
X269Y62D02*
X272Y62D01*
X280Y62D02*
X283Y62D01*
X303Y62D02*
X307Y62D01*
X370Y62D02*
X417Y62D01*
X602Y62D02*
X668Y62D01*
X715Y62D02*
X734Y62D01*
X746Y62D02*
X764Y62D01*
X774Y62D02*
X778Y62D01*
X791Y62D02*
X794Y62D01*
X802Y62D02*
X806Y62D01*
X826Y62D02*
X829Y62D01*
X869Y62D02*
X916Y62D01*
X1008Y62D02*
X1015Y62D01*
X0Y61D02*
X7Y61D01*
X103Y61D02*
X169Y61D01*
X230Y61D02*
X233Y61D01*
X252Y61D02*
X255Y61D01*
X269Y61D02*
X272Y61D01*
X280Y61D02*
X283Y61D01*
X303Y61D02*
X307Y61D01*
X370Y61D02*
X417Y61D01*
X602Y61D02*
X668Y61D01*
X715Y61D02*
X733Y61D01*
X745Y61D02*
X763Y61D01*
X774Y61D02*
X778Y61D01*
X791Y61D02*
X794Y61D01*
X802Y61D02*
X806Y61D01*
X826Y61D02*
X829Y61D01*
X869Y61D02*
X916Y61D01*
X1008Y61D02*
X1015Y61D01*
X0Y60D02*
X7Y60D01*
X103Y60D02*
X169Y60D01*
X230Y60D02*
X233Y60D01*
X252Y60D02*
X255Y60D01*
X269Y60D02*
X272Y60D01*
X280Y60D02*
X284Y60D01*
X303Y60D02*
X307Y60D01*
X370Y60D02*
X417Y60D01*
X602Y60D02*
X668Y60D01*
X714Y60D02*
X732Y60D01*
X744Y60D02*
X762Y60D01*
X774Y60D02*
X778Y60D01*
X791Y60D02*
X794Y60D01*
X802Y60D02*
X806Y60D01*
X826Y60D02*
X829Y60D01*
X869Y60D02*
X916Y60D01*
X1008Y60D02*
X1015Y60D01*
X0Y59D02*
X7Y59D01*
X103Y59D02*
X169Y59D01*
X230Y59D02*
X233Y59D01*
X239Y59D02*
X241Y59D01*
X252Y59D02*
X255Y59D01*
X269Y59D02*
X272Y59D01*
X280Y59D02*
X284Y59D01*
X303Y59D02*
X307Y59D01*
X370Y59D02*
X417Y59D01*
X602Y59D02*
X668Y59D01*
X714Y59D02*
X718Y59D01*
X744Y59D02*
X748Y59D01*
X774Y59D02*
X778Y59D01*
X791Y59D02*
X794Y59D01*
X803Y59D02*
X806Y59D01*
X826Y59D02*
X829Y59D01*
X869Y59D02*
X916Y59D01*
X1008Y59D02*
X1015Y59D01*
X0Y58D02*
X7Y58D01*
X102Y58D02*
X169Y58D01*
X230Y58D02*
X233Y58D01*
X238Y58D02*
X242Y58D01*
X252Y58D02*
X255Y58D01*
X269Y58D02*
X272Y58D01*
X280Y58D02*
X284Y58D01*
X303Y58D02*
X307Y58D01*
X370Y58D02*
X417Y58D01*
X602Y58D02*
X668Y58D01*
X714Y58D02*
X717Y58D01*
X744Y58D02*
X748Y58D01*
X774Y58D02*
X778Y58D01*
X791Y58D02*
X794Y58D01*
X803Y58D02*
X806Y58D01*
X826Y58D02*
X829Y58D01*
X870Y58D02*
X917Y58D01*
X1008Y58D02*
X1015Y58D01*
X0Y57D02*
X7Y57D01*
X230Y57D02*
X233Y57D01*
X238Y57D02*
X242Y57D01*
X252Y57D02*
X255Y57D01*
X269Y57D02*
X272Y57D01*
X281Y57D02*
X284Y57D01*
X303Y57D02*
X306Y57D01*
X714Y57D02*
X717Y57D01*
X744Y57D02*
X748Y57D01*
X774Y57D02*
X778Y57D01*
X791Y57D02*
X794Y57D01*
X803Y57D02*
X806Y57D01*
X825Y57D02*
X829Y57D01*
X1008Y57D02*
X1015Y57D01*
X0Y56D02*
X7Y56D01*
X230Y56D02*
X233Y56D01*
X238Y56D02*
X242Y56D01*
X252Y56D02*
X255Y56D01*
X269Y56D02*
X272Y56D01*
X281Y56D02*
X284Y56D01*
X303Y56D02*
X306Y56D01*
X714Y56D02*
X717Y56D01*
X744Y56D02*
X748Y56D01*
X774Y56D02*
X778Y56D01*
X791Y56D02*
X794Y56D01*
X803Y56D02*
X807Y56D01*
X825Y56D02*
X828Y56D01*
X1008Y56D02*
X1015Y56D01*
X0Y55D02*
X7Y55D01*
X230Y55D02*
X233Y55D01*
X238Y55D02*
X242Y55D01*
X252Y55D02*
X255Y55D01*
X269Y55D02*
X272Y55D01*
X281Y55D02*
X285Y55D01*
X302Y55D02*
X306Y55D01*
X714Y55D02*
X717Y55D01*
X744Y55D02*
X748Y55D01*
X774Y55D02*
X778Y55D01*
X791Y55D02*
X794Y55D01*
X804Y55D02*
X807Y55D01*
X825Y55D02*
X828Y55D01*
X1008Y55D02*
X1015Y55D01*
X0Y54D02*
X7Y54D01*
X230Y54D02*
X233Y54D01*
X238Y54D02*
X242Y54D01*
X252Y54D02*
X255Y54D01*
X269Y54D02*
X272Y54D01*
X282Y54D02*
X285Y54D01*
X302Y54D02*
X305Y54D01*
X714Y54D02*
X717Y54D01*
X744Y54D02*
X748Y54D01*
X774Y54D02*
X778Y54D01*
X791Y54D02*
X794Y54D01*
X804Y54D02*
X807Y54D01*
X824Y54D02*
X827Y54D01*
X1008Y54D02*
X1015Y54D01*
X0Y53D02*
X7Y53D01*
X230Y53D02*
X233Y53D01*
X238Y53D02*
X242Y53D01*
X252Y53D02*
X255Y53D01*
X269Y53D02*
X272Y53D01*
X283Y53D02*
X286Y53D01*
X301Y53D02*
X304Y53D01*
X714Y53D02*
X717Y53D01*
X744Y53D02*
X748Y53D01*
X774Y53D02*
X778Y53D01*
X791Y53D02*
X794Y53D01*
X805Y53D02*
X808Y53D01*
X824Y53D02*
X827Y53D01*
X1008Y53D02*
X1015Y53D01*
X0Y52D02*
X7Y52D01*
X230Y52D02*
X233Y52D01*
X238Y52D02*
X242Y52D01*
X252Y52D02*
X255Y52D01*
X269Y52D02*
X272Y52D01*
X283Y52D02*
X286Y52D01*
X301Y52D02*
X304Y52D01*
X714Y52D02*
X717Y52D01*
X744Y52D02*
X748Y52D01*
X774Y52D02*
X778Y52D01*
X791Y52D02*
X794Y52D01*
X806Y52D02*
X809Y52D01*
X823Y52D02*
X826Y52D01*
X1008Y52D02*
X1015Y52D01*
X0Y51D02*
X7Y51D01*
X230Y51D02*
X233Y51D01*
X238Y51D02*
X242Y51D01*
X252Y51D02*
X255Y51D01*
X269Y51D02*
X272Y51D01*
X284Y51D02*
X287Y51D01*
X300Y51D02*
X303Y51D01*
X714Y51D02*
X717Y51D01*
X744Y51D02*
X748Y51D01*
X774Y51D02*
X778Y51D01*
X791Y51D02*
X794Y51D01*
X806Y51D02*
X810Y51D01*
X822Y51D02*
X825Y51D01*
X1008Y51D02*
X1015Y51D01*
X0Y50D02*
X7Y50D01*
X230Y50D02*
X233Y50D01*
X238Y50D02*
X242Y50D01*
X252Y50D02*
X255Y50D01*
X269Y50D02*
X272Y50D01*
X285Y50D02*
X288Y50D01*
X299Y50D02*
X302Y50D01*
X714Y50D02*
X717Y50D01*
X744Y50D02*
X748Y50D01*
X774Y50D02*
X778Y50D01*
X791Y50D02*
X794Y50D01*
X808Y50D02*
X811Y50D01*
X821Y50D02*
X824Y50D01*
X1008Y50D02*
X1015Y50D01*
X0Y49D02*
X7Y49D01*
X223Y49D02*
X242Y49D01*
X252Y49D02*
X255Y49D01*
X269Y49D02*
X272Y49D01*
X286Y49D02*
X289Y49D01*
X298Y49D02*
X301Y49D01*
X714Y49D02*
X733Y49D01*
X744Y49D02*
X763Y49D01*
X774Y49D02*
X794Y49D01*
X809Y49D02*
X812Y49D01*
X820Y49D02*
X823Y49D01*
X1008Y49D02*
X1015Y49D01*
X0Y48D02*
X7Y48D01*
X222Y48D02*
X242Y48D01*
X252Y48D02*
X255Y48D01*
X269Y48D02*
X272Y48D01*
X279Y48D02*
X290Y48D01*
X297Y48D02*
X308Y48D01*
X714Y48D02*
X734Y48D01*
X744Y48D02*
X764Y48D01*
X775Y48D02*
X794Y48D01*
X802Y48D02*
X813Y48D01*
X819Y48D02*
X830Y48D01*
X1008Y48D02*
X1015Y48D01*
X0Y47D02*
X7Y47D01*
X222Y47D02*
X242Y47D01*
X252Y47D02*
X255Y47D01*
X269Y47D02*
X272Y47D01*
X279Y47D02*
X290Y47D01*
X297Y47D02*
X308Y47D01*
X714Y47D02*
X734Y47D01*
X744Y47D02*
X764Y47D01*
X775Y47D02*
X793Y47D01*
X801Y47D02*
X813Y47D01*
X819Y47D02*
X830Y47D01*
X1008Y47D02*
X1015Y47D01*
X0Y46D02*
X7Y46D01*
X222Y46D02*
X241Y46D01*
X252Y46D02*
X255Y46D01*
X269Y46D02*
X271Y46D01*
X279Y46D02*
X290Y46D01*
X297Y46D02*
X308Y46D01*
X714Y46D02*
X734Y46D01*
X744Y46D02*
X764Y46D01*
X776Y46D02*
X792Y46D01*
X801Y46D02*
X813Y46D01*
X819Y46D02*
X830Y46D01*
X1008Y46D02*
X1015Y46D01*
X0Y45D02*
X7Y45D01*
X224Y45D02*
X239Y45D01*
X279Y45D02*
X290Y45D01*
X297Y45D02*
X308Y45D01*
X715Y45D02*
X731Y45D01*
X745Y45D02*
X762Y45D01*
X779Y45D02*
X790Y45D01*
X802Y45D02*
X812Y45D01*
X819Y45D02*
X830Y45D01*
X1008Y45D02*
X1015Y45D01*
X0Y44D02*
X7Y44D01*
X1008Y44D02*
X1015Y44D01*
X0Y43D02*
X7Y43D01*
X1008Y43D02*
X1015Y43D01*
X0Y42D02*
X7Y42D01*
X1008Y42D02*
X1015Y42D01*
X0Y41D02*
X7Y41D01*
X1008Y41D02*
X1015Y41D01*
X0Y40D02*
X7Y40D01*
X1008Y40D02*
X1015Y40D01*
X0Y39D02*
X7Y39D01*
X1008Y39D02*
X1015Y39D01*
X0Y38D02*
X7Y38D01*
X1008Y38D02*
X1015Y38D01*
X0Y37D02*
X7Y37D01*
X1008Y37D02*
X1015Y37D01*
X0Y36D02*
X7Y36D01*
X1008Y36D02*
X1015Y36D01*
X0Y35D02*
X7Y35D01*
X1008Y35D02*
X1015Y35D01*
X0Y34D02*
X7Y34D01*
X1008Y34D02*
X1015Y34D01*
X0Y33D02*
X7Y33D01*
X1008Y33D02*
X1015Y33D01*
X0Y32D02*
X7Y32D01*
X1008Y32D02*
X1015Y32D01*
X0Y31D02*
X7Y31D01*
X1008Y31D02*
X1015Y31D01*
X0Y30D02*
X7Y30D01*
X1008Y30D02*
X1015Y30D01*
X0Y29D02*
X7Y29D01*
X1008Y29D02*
X1015Y29D01*
X0Y28D02*
X7Y28D01*
X1008Y28D02*
X1015Y28D01*
X0Y27D02*
X7Y27D01*
X1008Y27D02*
X1015Y27D01*
X0Y26D02*
X7Y26D01*
X1008Y26D02*
X1015Y26D01*
X0Y25D02*
X7Y25D01*
X1008Y25D02*
X1015Y25D01*
X0Y24D02*
X7Y24D01*
X1008Y24D02*
X1015Y24D01*
X0Y23D02*
X7Y23D01*
X1008Y23D02*
X1015Y23D01*
X0Y22D02*
X7Y22D01*
X1008Y22D02*
X1015Y22D01*
X0Y21D02*
X7Y21D01*
X1008Y21D02*
X1015Y21D01*
X0Y20D02*
X7Y20D01*
X1008Y20D02*
X1015Y20D01*
X0Y19D02*
X7Y19D01*
X1008Y19D02*
X1015Y19D01*
X0Y18D02*
X7Y18D01*
X1008Y18D02*
X1015Y18D01*
X0Y17D02*
X7Y17D01*
X1008Y17D02*
X1015Y17D01*
X0Y16D02*
X7Y16D01*
X1008Y16D02*
X1015Y16D01*
X0Y15D02*
X7Y15D01*
X1008Y15D02*
X1015Y15D01*
X0Y14D02*
X7Y14D01*
X1008Y14D02*
X1015Y14D01*
X0Y13D02*
X7Y13D01*
X1008Y13D02*
X1015Y13D01*
X0Y12D02*
X7Y12D01*
X1008Y12D02*
X1015Y12D01*
X0Y11D02*
X7Y11D01*
X1008Y11D02*
X1015Y11D01*
X0Y10D02*
X7Y10D01*
X1008Y10D02*
X1015Y10D01*
X0Y9D02*
X7Y9D01*
X1008Y9D02*
X1015Y9D01*
X0Y8D02*
X1015Y8D01*
X0Y7D02*
X1015Y7D01*
X0Y6D02*
X1015Y6D01*
X0Y5D02*
X1015Y5D01*
X0Y4D02*
X1015Y4D01*
X0Y3D02*
X1015Y3D01*
X0Y2D02*
X1015Y2D01*
X0Y1D02*
X1015Y1D01*
D02*
G04 End of Silk1*
M02*