; NON-PLATED HOLES START AT T1
; THROUGH (PLATED) HOLES START AT T100
M48
INCH
T1C0.086614
T100C0.015748
T101C0.035000
T102C0.031497
%
T1
X000603Y005623
X009603Y005623
T100
X004440Y002520
X005640Y002040
T101
X000603Y000623
X003603Y004623
X006603Y002623
X003603Y005623
X006603Y003623
X009603Y000623
X006603Y004623
X004603Y000623
X003603Y001623
X001603Y003623
X005603Y000623
X003603Y002623
X001603Y004623
X007603Y005623
X003603Y003623
X001603Y005623
X006603Y001623
T102
X008603Y001638
X008603Y002623
X001603Y001623
X001603Y002607
X008603Y003623
X008603Y004607
T00
M30
